<svg id="Capa_1" enable-background="new 0 0 512 512" height="512" viewBox="0 0 512 512" width="512" xmlns="http://www.w3.org/2000/svg"><g><path d="m504.5 67.5-60 46 30-105h30z" fill="#c9139d"/><path d="m474.5 67.5-60 16 30-75h30z" fill="#ff0787"/><path d="m444.5 67.5-60 31 30-90h30z" fill="#ff336d"/><path d="m414.5 83.5h-302l-15-16v-59h317z" fill="#ff545a"/><path d="m504.5 504.5h-30l-60-218.5 60-218.5h30z" fill="#acd2f6"/><path d="m474.5 504.5h-30l-60-218.5 60-218.5h30z" fill="#95b0ed"/><path d="m97.5 399.5h347v105h-347z" fill="#acd2f6"/><path d="m324.5 269.5-227 130h-90c0 24.853 20.147 45 45 45h317z" fill="#c4f3ff"/><path d="m324.5 269.5v130c0 24.853 20.147 45 45 45h30v-175z" fill="#acd2f6"/><path d="m414.5 67.5-30 374.429c4.693 1.659 9.739 2.571 15 2.571 24.853 0 45-20.147 45-45v-332z" fill="#c4f3ff"/><path d="m97.5 67.5v332h257c0 19.592 12.524 36.25 30 42.429 17.476-6.179 30-22.837 30-42.429v-30l-45-136 45-136v-30z" fill="#fff"/><path d="m318.833 97.5h-95.666l-95.667 90.667v90.666l95.667 90.667h95.666l18.108-73.506 77.559-17.161v-90.666z" fill="#95b0ed"/><g fill="#acd2f6"><path d="m127.5 97.5h95.667v90.667h-95.667z"/><path d="m223.167 188.167h95.667v90.667h-95.667z"/><path d="m127.5 278.833h95.667v90.667h-95.667z"/><path d="m318.833 97.5h95.667v90.667h-95.667z"/><path d="m318.833 278.833h95.667v90.667h-95.667z"/></g><path d="m504.5 0h-407c-4.142 0-7.5 3.358-7.5 7.5v384.5h-82.5c-4.142 0-7.5 3.358-7.5 7.5 0 28.949 23.551 52.5 52.5 52.5h347c28.949 0 52.5-23.551 52.5-52.5v-324.5h15v422h-362v-22.5c0-4.142-3.358-7.5-7.5-7.5s-7.5 3.358-7.5 7.5v30c0 4.142 3.358 7.5 7.5 7.5h407c4.142 0 7.5-3.358 7.5-7.5v-497c0-4.142-3.358-7.5-7.5-7.5zm-67.5 15v45h-332v-45zm-384.5 422c-18.109 0-33.262-12.905-36.747-30h331.781c1.677 11.673 7.208 22.118 15.259 30zm384.5-37.5c0 20.678-16.822 37.5-37.5 37.5s-37.5-16.822-37.5-37.5c0-4.142-3.358-7.5-7.5-7.5h-249.5v-317h332zm15-384.5h45v45h-45zm30 482v-422h15v422z"/><path d="m127.5 180.667c-4.142 0-7.5 3.358-7.5 7.5v181.333c0 4.142 3.358 7.5 7.5 7.5h287c4.142 0 7.5-3.358 7.5-7.5v-272c0-4.142-3.358-7.5-7.5-7.5h-287c-4.142 0-7.5 3.358-7.5 7.5v60.667c0 4.142 3.358 7.5 7.5 7.5s7.5-3.358 7.5-7.5v-53.167h80.667v75.667zm88.167 15v75.667h-80.667v-75.667zm191.333 75.666h-80.667v-75.667h80.667zm-95.667 0h-80.667v-75.667h80.667zm0 15v75.667h-80.667v-75.667zm-176.333 0h80.667v75.667h-80.667zm191.333 75.667v-75.667h80.667v75.667zm80.667-181.333h-80.667v-75.667h80.667zm-176.333-75.667h80.667v75.667h-80.667z"/></g></svg>