<svg id="Capa_1" enable-background="new 0 0 512 512" height="512" viewBox="0 0 512 512" width="512" xmlns="http://www.w3.org/2000/svg"><g><path d="m504.5 504.5h-30l-60-248.5 60-248.5h30z" fill="#acd2f6"/><path d="m474.5 504.5h-30l-60-248.5 60-248.5h30z" fill="#95b0ed"/><path d="m97.5 399.5h347v105h-347z" fill="#acd2f6"/><path d="m324.5 269.5-227 130h-90c0 24.853 20.147 45 45 45h317z" fill="#c4f3ff"/><path d="m324.5 269.5v130c0 24.853 20.147 45 45 45h30v-175z" fill="#acd2f6"/><path d="m414.5 7.5-30 434.429c4.693 1.659 9.739 2.571 15 2.571 24.853 0 45-20.147 45-45v-392z" fill="#c4f3ff"/><path d="m97.5 7.5v30l60 118.5-60 118.5v125h257c0 19.592 12.524 36.25 30 42.429 17.476-6.179 30-22.837 30-42.429v-392z" fill="#fff"/><path d="m304.5 37.5-60 118.5 60 118.5h30v-237z" fill="#ffb44e"/><path d="m97.5 37.5h207v237h-207z" fill="#ffd06a"/><circle cx="216" cy="156" r="7.5"/><circle cx="186" cy="156" r="7.5"/><circle cx="246" cy="156" r="7.5"/><path d="m504.5 0h-407c-4.143 0-7.5 3.358-7.5 7.5v52.5h-7.5c-12.406 0-22.5 10.093-22.5 22.5s10.094 22.5 22.5 22.5h7.5v287h-82.5c-4.143 0-7.5 3.358-7.5 7.5 0 28.949 23.552 52.5 52.5 52.5h347c28.948 0 52.5-23.551 52.5-52.5v-384.5h15v482h-362v-22.5c0-4.142-3.357-7.5-7.5-7.5s-7.5 3.358-7.5 7.5v30c0 4.142 3.357 7.5 7.5 7.5h407c4.143 0 7.5-3.358 7.5-7.5v-497c0-4.142-3.357-7.5-7.5-7.5zm-422 90c-4.136 0-7.5-3.364-7.5-7.5s3.364-7.5 7.5-7.5h7.5v15zm88.5-30h-43.5c-4.143 0-7.5 3.358-7.5 7.5s3.357 7.5 7.5 7.5h43.5c4.136 0 7.5 3.364 7.5 7.5s-3.364 7.5-7.5 7.5h-66v-45h222v222h-222v-162h66c12.406 0 22.5-10.093 22.5-22.5s-10.094-22.5-22.5-22.5zm-118.5 377c-18.109 0-33.262-12.905-36.747-30h331.781c1.677 11.673 7.208 22.118 15.259 30zm384.5-37.5c0 20.678-16.822 37.5-37.5 37.5s-37.5-16.822-37.5-37.5c0-4.142-3.357-7.5-7.5-7.5h-249.5v-110h229.5c4.143 0 7.5-3.358 7.5-7.5v-237c0-4.142-3.357-7.5-7.5-7.5h-229.5v-15h332zm60 97.5h-15v-482h15z"/></g></svg>