<svg id="Capa_1" enable-background="new 0 0 512 512" height="512" viewBox="0 0 512 512" width="512" xmlns="http://www.w3.org/2000/svg"><g><path d="m489.5 504.5h-30l-60-248.5 60-248.5h30z" fill="#ff545a"/><path d="m459.5 504.5h-377v-497h30l347 392z" fill="#ff7647"/><path d="m339.5 269.5-227 130h-90c0 24.853 20.147 45 45 45h317z" fill="#c4f3ff"/><path d="m339.5 269.5v130c0 24.853 20.147 45 45 45h30v-175z" fill="#acd2f6"/><path d="m429.5 7.5-30 434.429c4.693 1.659 9.739 2.571 15 2.571 24.853 0 45-20.147 45-45v-392z" fill="#c4f3ff"/><path d="m399.5 7.5-113.5 30-113.5-30h-60v392h257c0 19.592 12.524 36.25 30 42.429 17.476-6.179 30-22.837 30-42.429v-392z" fill="#fff"/><path d="m369.5 7.5-30 60h30c16.569 0 30-13.431 30-30v-30z" fill="#95b0ed"/><path d="m369.5 37.5v-30h-197v30c0 16.569 13.431 30 30 30h137c16.569 0 30-13.431 30-30z" fill="#acd2f6"/><circle cx="202.5" cy="37.5" r="7.5"/><circle cx="369.5" cy="37.5" r="7.5"/><path d="m489.5 0h-407c-4.142 0-7.5 3.358-7.5 7.5v384.5h-52.5c-4.142 0-7.5 3.358-7.5 7.5 0 28.949 23.551 52.5 52.5 52.5h347c28.949 0 52.5-23.551 52.5-52.5v-384.5h15v482h-392v-22.5c0-4.142-3.358-7.5-7.5-7.5s-7.5 3.358-7.5 7.5v30c0 4.142 3.358 7.5 7.5 7.5h407c4.142 0 7.5-3.358 7.5-7.5v-497c0-4.142-3.358-7.5-7.5-7.5zm-309.5 15h212v22.5c0 12.407-10.093 22.5-22.5 22.5h-167c-12.407 0-22.5-10.093-22.5-22.5zm-90 0h15v377h-15zm-22.5 422c-18.109 0-33.262-12.905-36.747-30h331.781c1.677 11.673 7.208 22.118 15.259 30zm384.5-37.5c0 20.678-16.822 37.5-37.5 37.5s-37.5-16.822-37.5-37.5c0-4.142-3.358-7.5-7.5-7.5h-249.5v-377h45v22.5c0 20.678 16.822 37.5 37.5 37.5h167c20.678 0 37.5-16.822 37.5-37.5v-22.5h45z"/></g></svg>