<svg id="Capa_1" enable-background="new 0 0 512 512" height="512" viewBox="0 0 512 512" width="512" xmlns="http://www.w3.org/2000/svg"><g><path d="m504.5 67.5-60 46 30-106h30z" fill="#666ddc"/><path d="m474.5 67.5-60 16 30-76h30z" fill="#7d8fe5"/><path d="m444.5 67.5-60 31 30-91h30z" fill="#acd2f6"/><path d="m414.5 83.5h-302l-15-16v-60h317z" fill="#c4f3ff"/><path d="m504.5 504.5h-30l-60-218.5 60-218.5h30z" fill="#acd2f6"/><path d="m474.5 504.5h-30l-60-218.5 60-218.5h30z" fill="#95b0ed"/><path d="m97.5 399.5h347v105h-347z" fill="#acd2f6"/><path d="m324.5 269.5-227 130h-90c0 24.853 20.147 45 45 45h317z" fill="#c4f3ff"/><path d="m324.5 269.5v130c0 24.853 20.147 45 45 45h30v-175z" fill="#acd2f6"/><path d="m414.5 67.5-30 374.429c4.693 1.659 9.739 2.571 15 2.571 24.853 0 45-20.147 45-45v-332z" fill="#c4f3ff"/><path d="m414.5 67.5h-317v332h257c0 19.592 12.524 36.25 30 42.429 17.476-6.179 30-22.837 30-42.429v-30-272z" fill="#fff"/><path d="m97.5 105h347v15h-347z" fill="#ff545a"/><circle cx="127.5" cy="37.5" r="7.5"/><circle cx="414.5" cy="37.5" r="7.5"/><circle cx="223.167" cy="37.5" r="7.5"/><ellipse cx="318.833" cy="37.5" rx="7.5" ry="7.5" transform="matrix(.987 -.16 .16 .987 -1.89 51.556)"/><path d="m504.5 0h-407c-4.142 0-7.5 3.358-7.5 7.5v384.5h-82.5c-4.142 0-7.5 3.358-7.5 7.5 0 28.949 23.551 52.5 52.5 52.5h347c28.948 0 52.5-23.551 52.5-52.5v-324.5h15v422h-362v-22.5c0-4.142-3.358-7.5-7.5-7.5s-7.5 3.358-7.5 7.5v30c0 4.142 3.358 7.5 7.5 7.5h407c4.143 0 7.5-3.358 7.5-7.5v-497c0-4.142-3.357-7.5-7.5-7.5zm-7.5 60h-15v-45h15zm-60-45v45h-332v-45zm-384.5 422c-18.109 0-33.262-12.905-36.747-30h331.781c1.677 11.673 7.208 22.118 15.259 30zm384.5-37.5c0 20.678-16.822 37.5-37.5 37.5s-37.5-16.822-37.5-37.5c0-4.142-3.357-7.5-7.5-7.5h-249.5v-317h332zm15-339.5v-45h15v45zm30 437v-422h15v422z"/></g></svg>