<svg id="Capa_1" enable-background="new 0 0 512 512" height="512" viewBox="0 0 512 512" width="512" xmlns="http://www.w3.org/2000/svg"><g><path d="m339.5 339.5 151.82 16.82-135 135z" fill="#ff9733"/><path d="m474.5 7.5-45 362h30c24.853 0 45-20.147 45-45v-317z" fill="#ffb44e"/><path d="m474.5 324.5v-317h-407v45l-15 15 15 15v422h257c24.853 0 45-20.147 45-45v-90h60c24.853 0 45-20.147 45-45z" fill="#ffd06a"/><path d="m211 52.5h-83.5c-8.284 0-15 6.716-15 15s6.716 15 15 15h83.5c8.271 0 15 6.729 15 15s-6.729 15-15 15h-158.5c-8.271 0-15-6.729-15-15s6.729-15 15-15h15v-30h-15c-24.813 0-45 20.187-45 45s20.187 45 45 45h158.5c24.813 0 45-20.187 45-45s-20.187-45-45-45z" fill="#ff336d"/><circle cx="286" cy="256" r="7.5"/><circle cx="316" cy="256" r="7.5"/><circle cx="256" cy="256" r="7.5"/><path d="m512 7.5c0-4.142-3.357-7.5-7.5-7.5h-437c-4.143 0-7.5 3.358-7.5 7.5v37.5h-7.5c-28.948 0-52.5 23.551-52.5 52.5s23.552 52.5 52.5 52.5h158.5c28.948 0 52.5-23.551 52.5-52.5s-23.552-52.5-52.5-52.5h-83.5c-12.406 0-22.5 10.093-22.5 22.5s10.094 22.5 22.5 22.5h83.5c4.136 0 7.5 3.364 7.5 7.5s-3.364 7.5-7.5 7.5h-136v-90h422v309.5c0 20.678-16.822 37.5-37.5 37.5h-90c-4.143 0-7.5 3.358-7.5 7.5v90c0 20.678-16.822 37.5-37.5 37.5h-249.5v-324.5c0-4.142-3.357-7.5-7.5-7.5s-7.5 3.358-7.5 7.5v332c0 4.142 3.357 7.5 7.5 7.5h257c14.474 0 27.599-5.888 37.106-15.394.017.017 135.017-134.983 135.017-134.983 9.489-9.524 15.377-22.649 15.377-37.123zm-278.5 90c0-12.407-10.094-22.5-22.5-22.5h-83.5c-4.136 0-7.5-3.364-7.5-7.5s3.364-7.5 7.5-7.5h83.5c20.678 0 37.5 16.822 37.5 37.5s-16.822 37.5-37.5 37.5h-158.5c-20.678 0-37.5-16.822-37.5-37.5s16.822-37.5 37.5-37.5h7.5v15h-7.5c-12.406 0-22.5 10.093-22.5 22.5s10.094 22.5 22.5 22.5h158.5c12.406 0 22.5-10.093 22.5-22.5zm-181 7.5c-4.136 0-7.5-3.364-7.5-7.5s3.364-7.5 7.5-7.5h7.5v15zm324.5 354.5v-82.5h82.5c.183 0 .363-.012.546-.014l-83.06 83.06c.002-.183.014-.363.014-.546z"/></g></svg>