<svg id="Capa_1" enable-background="new 0 0 512 512" height="512" viewBox="0 0 512 512" width="512" xmlns="http://www.w3.org/2000/svg"><g><path d="m474.5 7.5h-30v407l60-212v-165c0-16.569-13.431-30-30-30z" fill="#ff7647"/><path d="m444.5 7.5h-128.5c-16.569 0-30 13.431-30 30h-248.5c-16.569 0-30 13.431-30 30v105l467 242v-377c0-16.569-13.431-30-30-30z" fill="#ff9733"/><path d="m256 292.5h218.5v-210h-30z" fill="#acd2f6"/><path d="m37.5 112.5 218.5 120h188.5v-150h-407z" fill="#c4f3ff"/><path d="m256 322.5h218.5v-210h-30z" fill="#c4f3ff"/><path d="m37.5 112.5h407v210h-407z" fill="#fff"/><path d="m474.5 172.5h-30v332h30c16.569 0 30-13.431 30-30v-272c0-16.569-13.431-30-30-30z" fill="#ffb44e"/><path d="m444.5 172.5h-218.5c0-16.569-13.431-30-30-30h-158.5c-16.569 0-30 13.431-30 30v302c0 16.569 13.431 30 30 30h407c16.569 0 30-13.431 30-30v-272c0-16.569-13.431-30-30-30z" fill="#ffd06a"/><path d="m474.5 0h-158.5c-18.109 0-33.262 12.905-36.747 30h-241.753c-20.678 0-37.5 16.822-37.5 37.5v407c0 20.678 16.822 37.5 37.5 37.5h437c20.678 0 37.5-16.822 37.5-37.5v-437c0-20.678-16.822-37.5-37.5-37.5zm-437 45h248.5c4.142 0 7.5-3.358 7.5-7.5 0-12.407 10.093-22.5 22.5-22.5h158.5c12.407 0 22.5 10.093 22.5 22.5v135.02c-6.272-4.719-14.064-7.52-22.5-7.52h-241.753c-3.485-17.095-18.637-30-36.747-30h-151v-15h422v22.5c0 4.142 3.358 7.5 7.5 7.5s7.5-3.358 7.5-7.5v-60c0-4.142-3.358-7.5-7.5-7.5h-437c-4.142 0-7.5 3.358-7.5 7.5v53.255c-5.539 1.129-10.637 3.483-15 6.766v-75.021c0-12.407 10.093-22.5 22.5-22.5zm429.5 60h-422v-15h422zm30 369.5c0 12.407-10.093 22.5-22.5 22.5h-437c-12.407 0-22.5-10.093-22.5-22.5v-302c0-12.407 10.093-22.5 22.5-22.5h158.5c12.407 0 22.5 10.093 22.5 22.5 0 4.142 3.358 7.5 7.5 7.5h248.5c12.407 0 22.5 10.093 22.5 22.5z"/></g></svg>