<svg id="Capa_1" enable-background="new 0 0 512 512" height="512" viewBox="0 0 512 512" width="512" xmlns="http://www.w3.org/2000/svg"><g><path d="m138.167 7.5h-30v497h30c8.284 0 15-6.716 15-15v-467c0-8.284-6.716-15-15-15z" fill="#ffb44e"/><path d="m123.167 22.5c0-8.284-6.716-15-15-15h-85.667c-8.284 0-15 6.716-15 15v467c0 8.284 6.716 15 15 15h85.667c8.284 0 15-6.716 15-15v-150l-25.667-136 25.667-136z" fill="#ffd06a"/><path d="m80.333 384.5-15 30 15 30c16.569 0 30-13.431 30-30s-13.431-30-30-30z" fill="#4e4cd3"/><path d="m50.333 414.5c0 16.569 13.432 30 30 30v-60c-16.568 0-30 13.431-30 30z" fill="#3f6dde"/><path d="m123.167 67.5h-30l-30 105 60-45z" fill="#ff336d"/><path d="m37.5 67.5v60l55.667 45v-105z" fill="#ff545a"/><path d="m93.167 127.5-30 106 30 106h30v-212z" fill="#c4f3ff"/><path d="m37.5 127.5h55.667v212h-55.667z" fill="#fff"/><path d="m489.5 7.5h-30v497h30c8.284 0 15-6.716 15-15v-467c0-8.284-6.716-15-15-15z" fill="#22aef4"/><path d="m474.5 22.5c0-8.284-6.716-15-15-15h-85.667c-8.284 0-15 6.716-15 15v467c0 8.284 6.716 15 15 15h85.667c8.284 0 15-6.716 15-15v-150l-25.667-136 25.667-136z" fill="#14cfff"/><path d="m431.667 384.5-15 30 15 30c16.569 0 30-13.431 30-30s-13.432-30-30-30z" fill="#4e4cd3"/><path d="m401.667 414.5c0 16.569 13.432 30 30 30v-60c-16.569 0-30 13.431-30 30z" fill="#3f6dde"/><path d="m474.5 67.5h-30l-30 105 60-45z" fill="#ff336d"/><path d="m388.833 67.5v60l55.667 45v-105z" fill="#ff545a"/><path d="m444.5 127.5-30 106 30 106h30v-212z" fill="#c4f3ff"/><path d="m388.833 127.5h55.667v212h-55.667z" fill="#fff"/><path d="m313.833 7.5h-30v497h30c8.284 0 15-6.716 15-15v-467c0-8.284-6.715-15-15-15z" fill="#ff336d"/><path d="m298.833 22.5c0-8.284-6.716-15-15-15h-85.667c-8.284 0-15 6.716-15 15v467c0 8.284 6.716 15 15 15h85.667c8.284 0 15-6.716 15-15v-150l-25.667-136 25.667-136z" fill="#ff545a"/><path d="m256 384.5-15 30 15 30c16.569 0 30-13.431 30-30s-13.431-30-30-30z" fill="#4e4cd3"/><path d="m226 414.5c0 16.569 13.432 30 30 30v-60c-16.568 0-30 13.431-30 30z" fill="#3f6dde"/><path d="m298.833 67.5h-30l-30 105 60-45z" fill="#22aef4"/><path d="m213.167 67.5v60l55.666 45v-105z" fill="#14cfff"/><path d="m268.833 127.5-30 106 30 106h30v-212z" fill="#c4f3ff"/><path d="m213.167 127.5h55.667v212h-55.667z" fill="#fff"/><circle cx="80.333" cy="474.5" r="7.5"/><circle cx="80.333" cy="37.5" r="7.5"/><circle cx="431.667" cy="474.5" r="7.5"/><circle cx="431.667" cy="37.5" r="7.5"/><circle cx="256" cy="474.5" r="7.5"/><circle cx="256" cy="37.5" r="7.5"/><path d="m80.333 377c-20.678 0-37.5 16.822-37.5 37.5s16.822 37.5 37.5 37.5 37.5-16.822 37.5-37.5-16.822-37.5-37.5-37.5zm0 60c-12.407 0-22.5-10.093-22.5-22.5s10.093-22.5 22.5-22.5 22.5 10.093 22.5 22.5-10.093 22.5-22.5 22.5z"/><path d="m138.167 0h-115.667c-12.407 0-22.5 10.093-22.5 22.5v467c0 12.407 10.093 22.5 22.5 22.5h115.667c12.407 0 22.5-10.093 22.5-22.5v-467c0-12.407-10.094-22.5-22.5-22.5zm7.5 489.5c0 4.136-3.364 7.5-7.5 7.5h-115.667c-4.135 0-7.5-3.364-7.5-7.5v-467c0-4.136 3.365-7.5 7.5-7.5h115.667c4.136 0 7.5 3.364 7.5 7.5z"/><path d="m123.167 60h-85.667c-4.142 0-7.5 3.358-7.5 7.5v272c0 4.142 3.358 7.5 7.5 7.5h85.667c4.142 0 7.5-3.358 7.5-7.5v-272c0-4.142-3.358-7.5-7.5-7.5zm-7.5 15v45h-70.667v-45zm-70.667 257v-197h70.667v197z"/><path d="m431.667 377c-20.678 0-37.5 16.822-37.5 37.5s16.822 37.5 37.5 37.5 37.5-16.822 37.5-37.5-16.822-37.5-37.5-37.5zm0 60c-12.406 0-22.5-10.093-22.5-22.5s10.094-22.5 22.5-22.5 22.5 10.093 22.5 22.5-10.094 22.5-22.5 22.5z"/><path d="m489.5 0h-115.667c-12.406 0-22.5 10.093-22.5 22.5v467c0 12.407 10.094 22.5 22.5 22.5h115.667c12.406 0 22.5-10.093 22.5-22.5v-467c0-12.407-10.094-22.5-22.5-22.5zm7.5 489.5c0 4.136-3.364 7.5-7.5 7.5h-115.667c-4.136 0-7.5-3.364-7.5-7.5v-467c0-4.136 3.364-7.5 7.5-7.5h115.667c4.136 0 7.5 3.364 7.5 7.5z"/><path d="m474.5 60h-85.667c-4.143 0-7.5 3.358-7.5 7.5v272c0 4.142 3.357 7.5 7.5 7.5h85.667c4.143 0 7.5-3.358 7.5-7.5v-272c0-4.142-3.357-7.5-7.5-7.5zm-7.5 15v45h-70.667v-45zm-70.667 257v-197h70.667v197z"/><path d="m256 377c-20.678 0-37.5 16.822-37.5 37.5s16.822 37.5 37.5 37.5 37.5-16.822 37.5-37.5-16.822-37.5-37.5-37.5zm0 60c-12.407 0-22.5-10.093-22.5-22.5s10.093-22.5 22.5-22.5c12.406 0 22.5 10.093 22.5 22.5s-10.094 22.5-22.5 22.5z"/><path d="m313.833 0h-115.666c-12.407 0-22.5 10.093-22.5 22.5v467c0 12.407 10.093 22.5 22.5 22.5h115.667c12.406 0 22.5-10.093 22.5-22.5v-467c-.001-12.407-10.095-22.5-22.501-22.5zm7.5 489.5c0 4.136-3.364 7.5-7.5 7.5h-115.666c-4.136 0-7.5-3.364-7.5-7.5v-467c0-4.136 3.364-7.5 7.5-7.5h115.667c4.136 0 7.5 3.364 7.5 7.5v467z"/><path d="m298.833 60h-85.667c-4.142 0-7.5 3.358-7.5 7.5v60c0 4.142 3.358 7.5 7.5 7.5h78.167v197h-70.667v-174.5c0-4.142-3.358-7.5-7.5-7.5s-7.5 3.358-7.5 7.5v182c0 4.142 3.358 7.5 7.5 7.5h85.667c4.143 0 7.5-3.358 7.5-7.5v-272c0-4.142-3.357-7.5-7.5-7.5zm-7.5 60h-70.667v-45h70.667z"/></g></svg>