<svg id="Capa_1" enable-background="new 0 0 512 512" height="512" viewBox="0 0 512 512" width="512" xmlns="http://www.w3.org/2000/svg"><g><path d="m369.5 444.5 30 60h30v-30z" fill="#666ddc"/><path d="m82.5 474.5h317v30h-317z" fill="#7d8fe5"/><path d="m429.5 7.5h-30l-143.5 233.5 143.5 233.5h30z" fill="#acd2f6"/><path d="m399.5 7.5h-317v467h317v-30l-113.5-203.5 113.5-203.5z" fill="#c4f3ff"/><path d="m399.5 444.5v-135.667l-143.5-45 113.5 180.667z" fill="#95b0ed"/><path d="m112.5 444.5h257v-180.667l-257 45z" fill="#acd2f6"/><path d="m399.5 37.5h-30l-45 180.667 75-45z" fill="#95b0ed"/><path d="m112.5 37.5v135.667l257 45v-180.667z" fill="#acd2f6"/><path d="m399.5 173.167h-30l-113.5 67.833 113.5 67.833h30z" fill="#7d8fe5"/><path d="m112.5 173.167h257v135.667h-257z" fill="#95b0ed"/><g fill="#fff"><path d="m226 203.167h60v30h-60z"/><path d="m226 338.833h60v30h-60z"/><path d="m226 67.5h60v30h-60z"/></g><path d="m429.5 0h-347c-4.143 0-7.5 3.358-7.5 7.5v497c0 4.142 3.357 7.5 7.5 7.5h347c4.143 0 7.5-3.358 7.5-7.5v-497c0-4.142-3.357-7.5-7.5-7.5zm-7.5 15v452h-332v-452zm-332 482v-15h332v15z"/><path d="m226 240.667h60c4.143 0 7.5-3.358 7.5-7.5v-30c0-4.142-3.357-7.5-7.5-7.5h-60c-4.143 0-7.5 3.358-7.5 7.5v30c0 4.142 3.357 7.5 7.5 7.5zm7.5-30h45v15h-45z"/><path d="m286 331.333h-60c-4.143 0-7.5 3.358-7.5 7.5v30c0 4.142 3.357 7.5 7.5 7.5h60c4.143 0 7.5-3.358 7.5-7.5v-30c0-4.142-3.357-7.5-7.5-7.5zm-7.5 30h-45v-15h45z"/><path d="m226 105h60c4.143 0 7.5-3.358 7.5-7.5v-30c0-4.142-3.357-7.5-7.5-7.5h-60c-4.143 0-7.5 3.358-7.5 7.5v30c0 4.142 3.357 7.5 7.5 7.5zm7.5-30h45v15h-45z"/><path d="m226 255.667h60v15h-60z"/><path d="m286 391.333h-60c-4.143 0-7.5 3.358-7.5 7.5s3.357 7.5 7.5 7.5h60c4.143 0 7.5-3.358 7.5-7.5s-3.357-7.5-7.5-7.5z"/><path d="m226 135h60c4.143 0 7.5-3.358 7.5-7.5s-3.357-7.5-7.5-7.5h-60c-4.143 0-7.5 3.358-7.5 7.5s3.357 7.5 7.5 7.5z"/><path d="m112.5 452h287c4.143 0 7.5-3.358 7.5-7.5v-407c0-4.142-3.357-7.5-7.5-7.5h-287c-4.143 0-7.5 3.358-7.5 7.5v105.667c0 4.142 3.357 7.5 7.5 7.5s7.5-3.358 7.5-7.5v-98.167h272v120.667h-279.5c-4.143 0-7.5 3.358-7.5 7.5v271.333c0 4.142 3.357 7.5 7.5 7.5zm7.5-15v-120.667h272v120.667zm272-256.333v120.667h-272v-120.667z"/></g></svg>