<svg id="Capa_1" enable-background="new 0 0 512 512" height="512" viewBox="0 0 512 512" width="512" xmlns="http://www.w3.org/2000/svg"><g><path d="m459.5 52.5-60 218.5 60 233.5h30v-452z" fill="#ff545a"/><path d="m414.5 52.5-100 218.5 100 233.5h45v-452z" fill="#ff7647"/><path d="m22.5 30h392v474h-392z" fill="#ff9733"/><path d="m233.5 52.5v105h30c16.569 0 30-13.431 30-30v-75z" fill="#ff336d"/><path d="m263.5 127.5v-75h-120v75c0 16.569 13.431 30 30 30h60c16.569 0 30-13.431 30-30z" fill="#ff545a"/><path d="m474.5 7.5-60 37.5 60 52.5h30v-90z" fill="#ff7647"/><path d="m414.5 7.5-100 37.5 100 52.5h60v-90z" fill="#ff9733"/><path d="m7.5 7.5h407v90h-407z" fill="#ffb44e"/><path d="m504.5 0h-497c-4.143 0-7.5 3.358-7.5 7.5v90c0 4.142 3.357 7.5 7.5 7.5h7.5v399.5c0 4.142 3.357 7.5 7.5 7.5h467c4.143 0 7.5-3.358 7.5-7.5v-399.5h7.5c4.143 0 7.5-3.358 7.5-7.5v-90c0-4.142-3.357-7.5-7.5-7.5zm-489.5 15h392v75h-392zm136 90h135v22.5c0 12.407-10.094 22.5-22.5 22.5h-90c-12.406 0-22.5-10.093-22.5-22.5zm331 392h-60v-369.5c0-4.142-3.357-7.5-7.5-7.5s-7.5 3.358-7.5 7.5v369.5h-377v-392h106v22.5c0 20.678 16.822 37.5 37.5 37.5h90c20.678 0 37.5-16.822 37.5-37.5v-22.5h181zm15-407h-75v-75h75z"/></g></svg>