<svg id="Capa_1" enable-background="new 0 0 512 512" height="512" viewBox="0 0 512 512" width="512" xmlns="http://www.w3.org/2000/svg"><g><path d="m504.5 504.5h-30l-60-248.5 60-248.5h30z" fill="#acd2f6"/><path d="m474.5 504.5h-30l-60-248.5 60-248.5h30z" fill="#95b0ed"/><path d="m97.5 399.5h347v105h-347z" fill="#acd2f6"/><path d="m324.5 269.5-227 130h-90c0 24.853 20.147 45 45 45h317z" fill="#c4f3ff"/><path d="m324.5 269.5v130c0 24.853 20.147 45 45 45h30v-175z" fill="#acd2f6"/><path d="m414.5 7.5-30 434.429c4.693 1.659 9.739 2.571 15 2.571 24.853 0 45-20.147 45-45v-392z" fill="#c4f3ff"/><path d="m97.5 7.5v392h257c0 19.592 12.524 36.25 30 42.429 17.476-6.179 30-22.837 30-42.429v-392z" fill="#fff"/><path d="m172.5 106h197c4.142 0 7.5-3.358 7.5-7.5s-3.358-7.5-7.5-7.5h-197c-4.142 0-7.5 3.358-7.5 7.5s3.358 7.5 7.5 7.5z"/><path d="m172.5 136h197c4.142 0 7.5-3.358 7.5-7.5s-3.358-7.5-7.5-7.5h-197c-4.142 0-7.5 3.358-7.5 7.5s3.358 7.5 7.5 7.5z"/><path d="m172.5 316h197c4.142 0 7.5-3.358 7.5-7.5v-150c0-4.142-3.358-7.5-7.5-7.5h-197c-4.142 0-7.5 3.358-7.5 7.5v150c0 4.142 3.358 7.5 7.5 7.5zm7.5-120h15v105h-15zm30 105v-105h152v105zm152-120h-152v-15h152zm-167-15v15h-15v-15z"/><path d="m504.5 0h-407c-4.142 0-7.5 3.358-7.5 7.5v384.5h-82.5c-4.142 0-7.5 3.358-7.5 7.5 0 28.949 23.551 52.5 52.5 52.5h347c28.949 0 52.5-23.551 52.5-52.5v-384.5h15v482h-362v-22.5c0-4.142-3.358-7.5-7.5-7.5s-7.5 3.358-7.5 7.5v30c0 4.142 3.358 7.5 7.5 7.5h407c4.142 0 7.5-3.358 7.5-7.5v-497c0-4.142-3.358-7.5-7.5-7.5zm-452 437c-18.109 0-33.262-12.905-36.747-30h331.781c1.677 11.673 7.208 22.118 15.259 30zm384.5-37.5c0 20.678-16.822 37.5-37.5 37.5s-37.5-16.822-37.5-37.5c0-4.142-3.358-7.5-7.5-7.5h-249.5v-377h332zm60 97.5h-15v-482h15z"/></g></svg>