<svg id="Capa_1" enable-background="new 0 0 512 512" height="512" viewBox="0 0 512 512" width="512" xmlns="http://www.w3.org/2000/svg"><g><path d="m504.5 504.5h-30l-60-248.5 60-248.5h30z" fill="#acd2f6"/><path d="m474.5 504.5h-30l-60-248.5 60-248.5h30z" fill="#95b0ed"/><path d="m97.5 399.5h347v105h-347z" fill="#acd2f6"/><path d="m324.5 269.5-227 130h-90c0 24.853 20.147 45 45 45h317z" fill="#c4f3ff"/><path d="m324.5 269.5v130c0 24.853 20.147 45 45 45h30v-175z" fill="#acd2f6"/><path d="m414.5 7.5-30 434.429c4.693 1.659 9.739 2.571 15 2.571 24.853 0 45-20.147 45-45v-392z" fill="#c4f3ff"/><path d="m97.5 7.5v392h257c0 19.592 12.524 36.25 30 42.429 17.476-6.179 30-22.837 30-42.429v-392z" fill="#fff"/><path d="m157.5 238.5v70h60l30-70z" fill="#ffd06a"/><path d="m217.5 168.5v140h60l30-140z" fill="#ff7647"/><path d="m277.5 98.5h60v210h-60z" fill="#ff336d"/><path d="m157.5 316h180c4.143 0 7.5-3.358 7.5-7.5v-210c0-4.142-3.357-7.5-7.5-7.5h-60c-4.143 0-7.5 3.358-7.5 7.5v62.5h-52.5c-4.142 0-7.5 3.358-7.5 7.5v62.5h-52.5c-4.142 0-7.5 3.358-7.5 7.5v70c0 4.142 3.358 7.5 7.5 7.5zm127.5-210h45v195h-45zm-15 70v125h-45v-125zm-105 70h45v55h-45z"/><path d="m367.5 316h17c4.143 0 7.5-3.358 7.5-7.5s-3.357-7.5-7.5-7.5h-9.5v-55h9.5c4.143 0 7.5-3.358 7.5-7.5s-3.357-7.5-7.5-7.5h-9.5v-55h9.5c4.143 0 7.5-3.358 7.5-7.5s-3.357-7.5-7.5-7.5h-9.5v-55h9.5c4.143 0 7.5-3.358 7.5-7.5s-3.357-7.5-7.5-7.5h-17c-4.143 0-7.5 3.358-7.5 7.5v210c0 4.142 3.357 7.5 7.5 7.5z"/><path d="m504.5 0h-407c-4.142 0-7.5 3.358-7.5 7.5v384.5h-82.5c-4.142 0-7.5 3.358-7.5 7.5 0 28.949 23.551 52.5 52.5 52.5h347c28.948 0 52.5-23.551 52.5-52.5v-384.5h15v482h-362v-22.5c0-4.142-3.358-7.5-7.5-7.5s-7.5 3.358-7.5 7.5v30c0 4.142 3.358 7.5 7.5 7.5h407c4.143 0 7.5-3.358 7.5-7.5v-497c0-4.142-3.357-7.5-7.5-7.5zm-452 437c-18.109 0-33.262-12.905-36.747-30h331.781c1.677 11.673 7.208 22.118 15.259 30zm384.5-37.5c0 20.678-16.822 37.5-37.5 37.5s-37.5-16.822-37.5-37.5c0-4.142-3.357-7.5-7.5-7.5h-249.5v-377h332zm60 97.5h-15v-482h15z"/></g></svg>