<svg id="Capa_1" enable-background="new 0 0 512 512" height="512" viewBox="0 0 512 512" width="512" xmlns="http://www.w3.org/2000/svg"><g><path d="m459.5 352.5h-30v45l15 30 15-30z" fill="#7d8fe5"/><path d="m474.5 474.5h-15v-77h-30v77h-15c-16.569 0-30 13.431-30 30h120c0-16.569-13.431-30-30-30z" fill="#95b0ed"/><path d="m82.5 352.5h-30v45l15 30 15-30z" fill="#7d8fe5"/><path d="m97.5 474.5h-15v-77h-30v77h-15c-16.569 0-30 13.431-30 30h120c0-16.569-13.431-30-30-30z" fill="#95b0ed"/><path d="m474.5 7.5h-30v360h30c16.569 0 30-13.431 30-30v-300c0-16.569-13.431-30-30-30z" fill="#95b0ed"/><path d="m474.5 37.5c0-16.569-13.431-30-30-30h-407c-16.569 0-30 13.431-30 30v300c0 16.569 13.431 30 30 30h407c16.569 0 30-13.431 30-30l-45-150z" fill="#acd2f6"/><path d="m474.5 337.5h-30l-45-150 45-150h30z" fill="#c4f3ff"/><path d="m37.5 37.5h407v300h-407z" fill="#fff"/><path d="m142.5 222.5v70h60l30-70z" fill="#ffd06a"/><path d="m202.5 152.5v140h60l30-140z" fill="#ff7647"/><path d="m262.5 82.5h60v210h-60z" fill="#ff336d"/><path d="m474.5 375c20.678 0 37.5-16.822 37.5-37.5v-300c0-20.678-16.822-37.5-37.5-37.5h-437c-20.678 0-37.5 16.822-37.5 37.5v300c0 20.678 16.822 37.5 37.5 37.5h7.5v92h-7.5c-20.678 0-37.5 16.822-37.5 37.5 0 4.142 3.357 7.5 7.5 7.5h120c4.143 0 7.5-3.358 7.5-7.5 0-20.678-16.822-37.5-37.5-37.5h-7.5v-99.5c0-4.142-3.357-7.5-7.5-7.5h-45c-12.406 0-22.5-10.093-22.5-22.5v-300c0-12.407 10.094-22.5 22.5-22.5h437c12.406 0 22.5 10.093 22.5 22.5v300c0 12.407-10.094 22.5-22.5 22.5h-362c-4.143 0-7.5 3.358-7.5 7.5s3.357 7.5 7.5 7.5h309.5v92h-7.5c-20.678 0-37.5 16.822-37.5 37.5 0 4.142 3.357 7.5 7.5 7.5h120c4.143 0 7.5-3.358 7.5-7.5 0-20.678-16.822-37.5-37.5-37.5h-7.5v-92zm-414.5 99.5v-99.5h15v99.5c0 4.142 3.357 7.5 7.5 7.5h15c9.778 0 18.119 6.27 21.215 15h-102.43c3.096-8.73 11.437-15 21.215-15h15c4.143 0 7.5-3.358 7.5-7.5zm399.5 7.5h15c9.778 0 18.119 6.27 21.215 15h-102.43c3.096-8.73 11.437-15 21.215-15h15c4.143 0 7.5-3.358 7.5-7.5v-99.5h15v99.5c0 4.142 3.357 7.5 7.5 7.5z"/><path d="m482 337.5v-300c0-4.142-3.357-7.5-7.5-7.5h-437c-4.143 0-7.5 3.358-7.5 7.5v300c0 4.142 3.357 7.5 7.5 7.5h437c4.143 0 7.5-3.358 7.5-7.5zm-15-7.5h-422v-285h422z"/><path d="m142.5 300h180c4.143 0 7.5-3.358 7.5-7.5v-210c0-4.142-3.357-7.5-7.5-7.5h-60c-4.143 0-7.5 3.358-7.5 7.5v62.5h-52.5c-4.143 0-7.5 3.358-7.5 7.5v62.5h-52.5c-4.143 0-7.5 3.358-7.5 7.5v70c0 4.142 3.357 7.5 7.5 7.5zm127.5-210h45v195h-45zm-15 70v125h-45v-125zm-105 70h45v55h-45z"/><path d="m352.5 300h17c4.143 0 7.5-3.358 7.5-7.5s-3.357-7.5-7.5-7.5h-9.5v-55h9.5c4.143 0 7.5-3.358 7.5-7.5s-3.357-7.5-7.5-7.5h-9.5v-55h9.5c4.143 0 7.5-3.358 7.5-7.5s-3.357-7.5-7.5-7.5h-9.5v-55h9.5c4.143 0 7.5-3.358 7.5-7.5s-3.357-7.5-7.5-7.5h-17c-4.143 0-7.5 3.358-7.5 7.5v210c0 4.142 3.357 7.5 7.5 7.5z"/></g></svg>