<svg id="Capa_1" enable-background="new 0 0 512 512" height="512" viewBox="0 0 512 512" width="512" xmlns="http://www.w3.org/2000/svg"><g><path d="m48.107 442.68-31.82 53.033c11.716 11.716 30.711 11.716 42.426 0z" fill="#95b0ed"/><path d="m16.287 453.287c-11.716 11.716-11.716 30.711 0 42.426l42.426-42.426z" fill="#acd2f6"/><path d="m119.071 350.503-81.571 123.997 21.213 21.213 102.784-102.784z" fill="#4e4cd3"/><path d="m5.606 397.501h145.358v30h-145.358z" fill="#3f6dde" transform="matrix(.707 -.707 .707 .707 -268.753 176.175)"/><path d="m151.8 292.7h30v105h-30z" fill="#95b0ed" transform="matrix(.707 .707 -.707 .707 292.948 -16.839)"/><circle cx="316" cy="196" fill="#acd2f6" r="188.5"/><path d="m316 37.5v317c87.537 0 158.5-70.963 158.5-158.5s-70.963-158.5-158.5-158.5z" fill="#c4f3ff"/><path d="m444.5 196c0-87.537-57.531-158.5-128.5-158.5-87.537 0-158.5 70.963-158.5 158.5s70.963 158.5 158.5 158.5c70.969 0 128.5-70.963 128.5-158.5z" fill="#fff"/><path d="m172.104 382.323-21.213-21.213-21.213 21.213 21.213 21.213c5.858 5.858 15.355 5.858 21.213 0s5.858-15.356 0-21.213z" fill="#acd2f6"/><path d="m150.891 382.323c5.858-5.858 5.858-15.355 0-21.213l-21.213-21.213c-5.858-5.858-15.355-5.858-21.213 0s-5.858 15.355 0 21.213l21.213 21.213c5.857 5.858 15.355 5.857 21.213 0z" fill="#c4f3ff"/><g fill="#14cfff"><circle cx="226" cy="226" r="15"/><circle cx="346" cy="226" r="15"/><circle cx="406" cy="166" r="15"/><circle cx="286" cy="166" r="15"/></g><path d="m316 0c-108.075 0-196 87.925-196 196 0 45.948 15.9 88.248 42.477 121.703l-22.21 22.21-5.303-5.303c-8.773-8.773-23.047-8.773-31.82 0-6.914 6.914-8.379 17.246-4.395 25.608l-87.783 87.783c-14.621 14.621-14.621 38.412 0 53.033s38.412 14.621 53.033 0l87.783-87.783c8.362 3.985 18.693 2.52 25.608-4.395 8.773-8.773 8.773-23.047 0-31.82l-5.303-5.303 22.21-22.21c33.455 26.577 75.755 42.477 121.703 42.477 108.075 0 196-87.925 196-196s-87.925-196-196-196zm-294.427 490.427c-6.914-6.914-8.374-17.243-4.391-25.604l29.995 29.995c-8.362 3.984-18.691 2.523-25.604-4.391zm37.123-5.303-10.607-10.607 81.571-81.571 10.607 10.607zm108.087-86.874c-2.924 2.924-7.682 2.924-10.607 0l-21.213-21.213c-2.929-2.929-7.678-2.929-10.607 0l-86.874 86.874-10.607-10.607 86.874-86.874c2.929-2.929 2.929-7.678 0-10.607-2.924-2.924-2.924-7.682 0-10.607 2.924-2.924 7.682-2.924 10.607 0l42.426 42.426c2.926 2.926 2.926 7.683.001 10.608zm-5.303-37.123-10.607-10.607 21.405-21.405c3.4 3.668 6.938 7.206 10.607 10.607zm154.52 15.873c-99.804 0-181-81.196-181-181s81.196-181 181-181 181 81.196 181 181-81.196 181-181 181z"/><path d="m316 30c-38.543 0-76.099 13.51-105.749 38.04-3.191 2.641-3.638 7.368-.998 10.56 2.641 3.192 7.368 3.639 10.56.998 26.967-22.311 61.127-34.598 96.187-34.598 83.262 0 151 67.738 151 151s-67.738 151-151 151-151-67.738-151-151c0-35.06 12.287-69.22 34.598-96.188 2.64-3.191 2.193-7.919-.998-10.56-3.192-2.641-7.919-2.193-10.56.998-24.53 29.651-38.04 67.207-38.04 105.75 0 91.533 74.467 166 166 166s166-74.467 166-166-74.467-166-166-166z"/><path d="m226 203.5c-12.407 0-22.5 10.093-22.5 22.5s10.093 22.5 22.5 22.5 22.5-10.093 22.5-22.5c0-3.469-.79-6.757-2.199-9.694l30.004-30.004c2.937 1.408 6.225 2.199 9.695 2.199s6.757-.79 9.695-2.199l30.004 30.004c-1.408 2.937-2.199 6.225-2.199 9.695 0 12.407 10.093 22.5 22.5 22.5s22.5-10.093 22.5-22.5c0-3.469-.79-6.757-2.199-9.694l30.004-30.004c2.937 1.408 6.225 2.199 9.695 2.199 12.407 0 22.5-10.093 22.5-22.5s-10.093-22.5-22.5-22.5-22.5 10.093-22.5 22.5c0 3.469.79 6.757 2.199 9.695l-30.004 30.004c-2.938-1.409-6.225-2.199-9.695-2.199-3.469 0-6.757.79-9.695 2.199l-30.004-30.004c1.408-2.937 2.199-6.225 2.199-9.694 0-12.407-10.093-22.5-22.5-22.5s-22.5 10.093-22.5 22.5c0 3.469.79 6.757 2.199 9.695l-30.004 30.004c-2.938-1.412-6.225-2.202-9.695-2.202zm0 30c-4.136 0-7.5-3.364-7.5-7.5s3.364-7.5 7.5-7.5 7.5 3.364 7.5 7.5-3.364 7.5-7.5 7.5zm180-75c4.136 0 7.5 3.364 7.5 7.5s-3.364 7.5-7.5 7.5-7.5-3.364-7.5-7.5 3.364-7.5 7.5-7.5zm-60 60c4.136 0 7.5 3.364 7.5 7.5s-3.364 7.5-7.5 7.5-7.5-3.364-7.5-7.5 3.364-7.5 7.5-7.5zm-60-60c4.136 0 7.5 3.364 7.5 7.5s-3.364 7.5-7.5 7.5-7.5-3.364-7.5-7.5 3.364-7.5 7.5-7.5z"/></g></svg>