<svg id="Capa_1" enable-background="new 0 0 512 512" height="512" viewBox="0 0 512 512" width="512" xmlns="http://www.w3.org/2000/svg"><g><path d="m430.583 308.833-30-52.833 30-52.833h30v105.666z" fill="#acd2f6"/><path d="m314.917 203.167h115.667v105.667h-115.667z" fill="#c4f3ff"/><path d="m123.167 504.5-30-52.833 30-52.834h30v105.667z" fill="#acd2f6"/><path d="m7.5 398.833h115.667v105.667h-115.667z" fill="#c4f3ff"/><path d="m298.833 504.5-30-52.833 30-52.834h30v105.667z" fill="#acd2f6"/><path d="m183.167 398.833h115.667v105.667h-115.667z" fill="#c4f3ff"/><path d="m167.083 308.833-30-52.833 30-52.833h30v105.666z" fill="#acd2f6"/><path d="m51.417 203.167h115.667v105.667h-115.667z" fill="#c4f3ff"/><path d="m298.833 113.167-30-52.834 30-52.833h30v105.667z" fill="#acd2f6"/><path d="m183.167 7.5h115.667v105.667h-115.667z" fill="#c4f3ff"/><path d="m474.5 504.5-30-52.833 30-52.834h30v105.667z" fill="#acd2f6"/><path d="m358.833 398.833h115.667v105.667h-115.667z" fill="#c4f3ff"/><path d="m124.25 180.667c4.142 0 7.5-3.358 7.5-7.5v-22.5h248.5v22.5c0 4.142 3.357 7.5 7.5 7.5s7.5-3.358 7.5-7.5v-30c0-4.142-3.357-7.5-7.5-7.5h-263.5c-4.142 0-7.5 3.358-7.5 7.5v30c0 4.142 3.358 7.5 7.5 7.5z"/><path d="m431.667 376.333c4.143 0 7.5-3.358 7.5-7.5v-30c0-4.142-3.357-7.5-7.5-7.5h-351.334c-4.142 0-7.5 3.358-7.5 7.5v30c0 4.142 3.358 7.5 7.5 7.5s7.5-3.358 7.5-7.5v-22.5h160.667v22.5c0 4.142 3.358 7.5 7.5 7.5 4.143 0 7.5-3.358 7.5-7.5v-22.5h160.667v22.5c0 4.143 3.357 7.5 7.5 7.5z"/><path d="m183.167 120.667h145.667c4.143 0 7.5-3.358 7.5-7.5v-105.667c0-4.142-3.357-7.5-7.5-7.5h-145.667c-4.142 0-7.5 3.358-7.5 7.5v105.667c0 4.142 3.357 7.5 7.5 7.5zm7.5-105.667h130.667v90.667h-130.667z"/><path d="m153.167 391.333h-145.667c-4.142 0-7.5 3.358-7.5 7.5v105.667c0 4.142 3.358 7.5 7.5 7.5h145.667c4.142 0 7.5-3.358 7.5-7.5v-105.667c0-4.142-3.358-7.5-7.5-7.5zm-7.5 105.667h-130.667v-90.667h130.667z"/><path d="m504.5 391.333h-145.667c-4.143 0-7.5 3.358-7.5 7.5v105.667c0 4.142 3.357 7.5 7.5 7.5h145.667c4.143 0 7.5-3.358 7.5-7.5v-105.667c0-4.142-3.357-7.5-7.5-7.5zm-7.5 105.667h-130.667v-90.667h130.667z"/><path d="m307.417 203.167v37.833c0 4.142 3.357 7.5 7.5 7.5s7.5-3.358 7.5-7.5v-30.333h130.666v90.667h-130.666v-30.334c0-4.142-3.357-7.5-7.5-7.5s-7.5 3.358-7.5 7.5v37.833c0 4.142 3.357 7.5 7.5 7.5h145.666c4.143 0 7.5-3.358 7.5-7.5v-105.666c0-4.142-3.357-7.5-7.5-7.5h-145.666c-4.143 0-7.5 3.357-7.5 7.5z"/><path d="m328.833 391.333h-145.666c-4.142 0-7.5 3.358-7.5 7.5v105.667c0 4.142 3.358 7.5 7.5 7.5h145.667c4.143 0 7.5-3.358 7.5-7.5v-105.667c-.001-4.142-3.358-7.5-7.501-7.5zm-7.5 105.667h-130.666v-90.667h130.667v90.667z"/><path d="m51.417 316.333h145.667c4.142 0 7.5-3.358 7.5-7.5v-105.666c0-4.142-3.358-7.5-7.5-7.5h-145.667c-4.142 0-7.5 3.358-7.5 7.5v105.667c0 4.142 3.357 7.499 7.5 7.499zm7.5-105.666h130.667v90.667h-130.667z"/></g></svg>