<svg id="Capa_1" enable-background="new 0 0 512 512" height="512" viewBox="0 0 512 512" width="512" xmlns="http://www.w3.org/2000/svg"><g><path d="m503.475 278.5c.665-7.413 1.025-14.914 1.025-22.5s-.359-15.087-1.025-22.5l-31.035-7.5c-2.504-18.233-7.256-35.746-13.97-52.256l23.099-21.996c-3.13-6.753-6.569-13.428-10.363-19.998-3.793-6.57-7.855-12.886-12.137-18.973l-30.634 9.026c-11.12-14.268-23.971-27.119-38.239-38.239l9.026-30.634c-6.087-4.283-12.403-8.344-18.973-12.137-6.569-3.793-13.244-7.233-19.997-10.363l-21.996 23.099c-16.509-6.714-34.023-11.466-52.256-13.97v15c89.532 13.609 158.5 98.603 158.5 201.441s-68.968 187.832-158.5 201.44v15c18.233-2.504 35.746-7.256 52.256-13.97l21.996 23.099c6.753-3.13 13.428-6.569 19.998-10.363 6.57-3.793 12.886-7.855 18.973-12.137l-9.026-30.634c14.268-11.12 27.119-23.971 38.239-38.239l30.634 9.026c4.283-6.087 8.344-12.403 12.137-18.973s7.232-13.245 10.363-19.998l-23.099-21.996c6.714-16.509 11.466-34.023 13.97-52.256z" fill="#95b0ed"/><path d="m444.5 256c0-110.496-68.968-201.819-158.5-216.441l-7.5-31.035c-7.413-.665-14.914-1.024-22.5-1.024s-15.087.359-22.5 1.025l-7.5 31.034c-18.233 2.504-35.746 7.256-52.256 13.97l-21.996-23.099c-6.753 3.13-13.428 6.57-19.998 10.363s-12.886 7.855-18.973 12.137l9.026 30.634c-14.268 11.12-27.119 23.971-38.239 38.239l-30.634-9.026c-4.283 6.087-8.344 12.403-12.137 18.973s-7.233 13.245-10.363 19.998l23.099 21.996c-6.714 16.509-11.466 34.023-13.97 52.256l-31.035 7.5c-.665 7.413-1.024 14.914-1.024 22.5s.359 15.087 1.025 22.5l31.035 7.5c2.504 18.233 7.256 35.746 13.97 52.256l-23.1 21.996c3.13 6.753 6.569 13.428 10.363 19.998 3.793 6.57 7.855 12.886 12.137 18.973l30.634-9.026c11.12 14.268 23.971 27.119 38.239 38.239l-9.026 30.634c6.087 4.283 12.403 8.344 18.973 12.137s13.245 7.232 19.998 10.363l21.996-23.099c16.509 6.714 34.023 11.466 52.256 13.97l7.5 31.035c7.413.665 14.914 1.025 22.5 1.025s15.087-.359 22.5-1.025l7.5-31.035c89.532-14.622 158.5-105.945 158.5-216.441zm-188.5 173.5c-95.821 0-173.5-77.679-173.5-173.5s77.679-173.5 173.5-173.5 173.5 77.679 173.5 173.5-77.679 173.5-173.5 173.5z" fill="#acd2f6"/><path d="m256 67.5c-104.106 0-188.5 84.394-188.5 188.5s84.394 188.5 188.5 188.5 188.5-84.394 188.5-188.5-84.394-188.5-188.5-188.5zm0 332c-79.253 0-143.5-64.247-143.5-143.5s64.247-143.5 143.5-143.5 143.5 64.247 143.5 143.5-64.247 143.5-143.5 143.5z" fill="#7d8fe5"/><path d="m256 97.5c54.4 0 98.5 70.963 98.5 158.5s-44.1 158.5-98.5 158.5c87.537 0 158.5-70.963 158.5-158.5s-70.963-158.5-158.5-158.5z" fill="#95b0ed"/><path d="m256 97.5c-87.537 0-158.5 70.963-158.5 158.5s70.963 158.5 158.5 158.5c70.969 0 128.5-70.963 128.5-158.5s-57.531-158.5-128.5-158.5zm0 212c-29.547 0-53.5-23.953-53.5-53.5s23.953-53.5 53.5-53.5 53.5 23.953 53.5 53.5-23.953 53.5-53.5 53.5z" fill="#acd2f6"/><path d="m256 187.5c-37.831 0-68.5 30.668-68.5 68.5s30.669 68.5 68.5 68.5 68.5-30.668 68.5-68.5-30.669-68.5-68.5-68.5zm0 107c-21.263 0-38.5-17.237-38.5-38.5s17.237-38.5 38.5-38.5 38.5 17.237 38.5 38.5-17.237 38.5-38.5 38.5z" fill="#95b0ed"/><circle cx="256" cy="369.5" r="7.5"/><circle cx="256" cy="142.5" r="7.5"/><circle cx="142.5" cy="256" r="7.5"/><circle cx="369.5" cy="256" r="7.5"/><path d="m151.211 316.5c2.071 3.587 6.658 4.816 10.245 2.745s4.816-6.658 2.745-10.245-6.658-4.816-10.245-2.745-4.816 6.658-2.745 10.245z"/><path d="m358.044 205.745c3.587-2.071 4.816-6.658 2.745-10.245s-6.658-4.816-10.245-2.745-4.816 6.658-2.745 10.245 6.658 4.816 10.245 2.745z"/><path d="m192.755 350.544c-2.071 3.587-.842 8.174 2.745 10.245s8.174.842 10.245-2.745.842-8.174-2.745-10.245-8.174-.842-10.245 2.745z"/><path d="m319.245 161.456c2.071-3.587.842-8.174-2.745-10.245s-8.174-.842-10.245 2.745-.842 8.174 2.745 10.245 8.174.842 10.245-2.745z"/><path d="m309 347.799c-3.587 2.071-4.816 6.658-2.745 10.245s6.658 4.816 10.245 2.745 4.816-6.658 2.745-10.245-6.658-4.816-10.245-2.745z"/><ellipse cx="199.25" cy="157.706" rx="7.5" ry="7.5" transform="matrix(.821 -.571 .571 .821 -54.381 142.121)"/><path d="m350.544 319.245c3.587 2.071 8.174.842 10.245-2.745s.842-8.174-2.745-10.245-8.174-.842-10.245 2.745-.842 8.174 2.745 10.245z"/><path d="m153.956 205.745c3.587 2.071 8.174.842 10.245-2.745s.842-8.174-2.745-10.245-8.174-.842-10.245 2.745-.842 8.174 2.745 10.245z"/><path d="m510.945 232.83c-.287-3.202-2.583-5.865-5.708-6.62l-26.124-6.313c-2.427-15.101-6.391-29.927-11.816-44.201l19.445-18.516c2.328-2.217 2.984-5.67 1.632-8.586-3.293-7.104-6.884-14.032-10.672-20.593-3.788-6.562-7.993-13.136-12.498-19.539-1.85-2.63-5.168-3.788-8.254-2.879l-25.797 7.601c-9.659-11.832-20.505-22.677-32.337-32.336l7.601-25.797c.908-3.084-.249-6.404-2.879-8.253-6.403-4.505-12.977-8.711-19.538-12.499-6.564-3.79-13.493-7.38-20.594-10.672-2.916-1.351-6.369-.696-8.586 1.633l-18.516 19.444c-14.272-5.425-29.099-9.389-44.201-11.816l-6.313-26.125c-.755-3.125-3.418-5.421-6.619-5.708-7.798-.7-15.593-1.055-23.171-1.055s-15.373.355-23.171 1.055c-3.201.288-5.864 2.583-6.619 5.708l-6.313 26.123c-15.103 2.428-29.929 6.391-44.201 11.816l-18.516-19.444c-2.218-2.329-5.672-2.984-8.586-1.633-7.101 3.292-14.029 6.882-20.594 10.672-6.56 3.787-13.133 7.992-19.539 12.499-2.63 1.85-3.787 5.17-2.879 8.254l7.603 25.797c-11.832 9.659-22.678 20.504-32.338 32.336l-25.797-7.601c-3.081-.906-6.404.249-8.254 2.879-4.505 6.403-8.71 12.977-12.498 19.539-3.788 6.561-7.379 13.49-10.672 20.593-1.353 2.916-.696 6.37 1.632 8.586l19.445 18.516c-5.426 14.273-9.39 29.1-11.816 44.201l-26.124 6.314c-3.125.755-5.421 3.418-5.708 6.62-.701 7.798-1.055 15.594-1.055 23.17s.354 15.371 1.055 23.17c.287 3.202 2.583 5.865 5.708 6.62l26.124 6.313c2.427 15.101 6.391 29.927 11.816 44.201l-19.445 18.516c-2.328 2.217-2.984 5.67-1.632 8.586 3.293 7.104 6.884 14.032 10.672 20.593 3.788 6.562 7.993 13.136 12.498 19.539 1.851 2.63 5.171 3.79 8.254 2.879l25.797-7.601c9.66 11.832 20.506 22.677 32.338 32.336l-7.603 25.797c-.908 3.084.249 6.404 2.879 8.254 6.403 4.504 12.978 8.709 19.538 12.498 6.559 3.787 13.488 7.378 20.595 10.672 2.914 1.352 6.368.696 8.586-1.632l18.516-19.445c14.273 5.426 29.1 9.39 44.201 11.816l6.313 26.124c.755 3.125 3.418 5.421 6.619 5.708 7.798.7 15.593 1.055 23.171 1.055s15.373-.355 23.171-1.055c3.201-.288 5.864-2.583 6.619-5.708l6.313-26.124c15.102-2.427 29.928-6.391 44.201-11.816l18.516 19.445c2.218 2.329 5.671 2.984 8.586 1.632 7.106-3.294 14.036-6.885 20.594-10.672 6.563-3.79 13.138-7.995 19.538-12.499 2.63-1.85 3.787-5.169 2.879-8.253l-7.601-25.797c11.832-9.66 22.678-20.505 32.337-32.336l25.797 7.601c3.082.909 6.404-.249 8.254-2.879 4.505-6.403 8.71-12.977 12.498-19.539 3.788-6.561 7.379-13.49 10.672-20.593 1.353-2.916.696-6.37-1.632-8.586l-19.445-18.516c5.426-14.273 9.39-29.1 11.816-44.201l26.124-6.313c3.125-.755 5.421-3.418 5.708-6.62.7-7.799 1.055-15.595 1.055-23.17 0-7.576-.354-15.372-1.055-23.17zm-14.517 39.657-25.749 6.223c-2.999.725-5.249 3.212-5.669 6.27-2.378 17.318-6.916 34.292-13.486 50.451-1.161 2.855-.457 6.131 1.775 8.257l19.162 18.247c-2.451 5.005-5.048 9.887-7.749 14.566s-5.63 9.368-8.738 13.992l-25.418-7.489c-2.958-.869-6.142.154-8.036 2.584-10.733 13.772-23.16 26.199-36.933 36.934-2.43 1.894-3.454 5.08-2.584 8.035l7.488 25.418c-4.622 3.108-9.312 6.037-13.992 8.739-4.677 2.701-9.558 5.297-14.564 7.749l-18.247-19.162c-2.125-2.233-5.4-2.938-8.257-1.776-16.158 6.571-33.133 11.109-50.451 13.487-3.057.42-5.545 2.669-6.27 5.668l-6.223 25.749c-5.558.379-11.084.571-16.487.571s-10.929-.192-16.487-.572l-6.223-25.749c-.725-3-3.213-5.249-6.27-5.668-17.318-2.378-34.293-6.916-50.451-13.487-2.854-1.16-6.131-.457-8.257 1.776l-18.247 19.162c-5.007-2.452-9.888-5.048-14.565-7.749-4.679-2.702-9.368-5.63-13.992-8.739l7.49-25.417c.871-2.955-.154-6.142-2.584-8.036-13.773-10.734-26.199-23.16-36.934-36.934-1.894-2.429-5.076-3.454-8.036-2.584l-25.418 7.489c-3.108-4.624-6.037-9.313-8.738-13.992s-5.298-9.561-7.749-14.566l19.162-18.247c2.232-2.126 2.937-5.401 1.775-8.257-6.57-16.159-11.108-33.133-13.486-50.451-.42-3.057-2.67-5.545-5.669-6.27l-25.749-6.223c-.38-5.559-.572-11.084-.572-16.486s.192-10.928.572-16.487l25.749-6.223c2.999-.725 5.249-3.212 5.669-6.27 2.378-17.318 6.916-34.292 13.486-50.451 1.161-2.855.457-6.131-1.775-8.257l-19.162-18.247c2.451-5.005 5.048-9.887 7.749-14.566s5.63-9.368 8.738-13.992l25.418 7.489c2.959.87 6.142-.154 8.036-2.584 10.734-13.773 23.16-26.2 36.934-36.934 2.43-1.894 3.455-5.081 2.584-8.036l-7.49-25.417c4.626-3.109 9.314-6.039 13.992-8.739 4.681-2.703 9.563-5.299 14.565-7.749l18.247 19.162c2.125 2.231 5.399 2.936 8.257 1.776 16.156-6.57 33.131-11.108 50.451-13.487 3.057-.42 5.545-2.669 6.27-5.668l6.223-25.749c5.558-.379 11.084-.571 16.487-.571s10.929.192 16.487.572l6.223 25.749c.725 3 3.213 5.249 6.27 5.668 17.32 2.379 34.295 6.917 50.451 13.487 2.854 1.162 6.131.457 8.257-1.776l18.247-19.162c5.003 2.45 9.885 5.046 14.565 7.749 4.679 2.701 9.367 5.63 13.991 8.739l-7.488 25.418c-.87 2.955.154 6.142 2.584 8.035 13.772 10.734 26.199 23.161 36.933 36.934 1.894 2.429 5.08 3.455 8.036 2.584l25.418-7.489c3.108 4.624 6.037 9.313 8.738 13.992s5.298 9.561 7.749 14.566l-19.162 18.247c-2.232 2.126-2.937 5.401-1.775 8.257 6.57 16.159 11.108 33.133 13.486 50.451.42 3.057 2.67 5.545 5.669 6.27l25.749 6.223c.38 5.56.572 11.085.572 16.487s-.192 10.926-.572 16.486z"/><path d="m256 60c-108.075 0-196 87.925-196 196s87.925 196 196 196 196-87.925 196-196-87.925-196-196-196zm0 377c-99.804 0-181-81.196-181-181s81.196-181 181-181 181 81.196 181 181-81.196 181-181 181z"/><path d="m256 90c-53.567 0-104.134 26.078-135.266 69.757-2.404 3.373-1.618 8.057 1.755 10.46 3.371 2.404 8.056 1.617 10.46-1.754 28.322-39.738 74.323-63.463 123.051-63.463 83.262 0 151 67.738 151 151s-67.738 151-151 151-151-67.738-151-151c0-21.902 4.59-43.029 13.644-62.796 1.725-3.766.069-8.217-3.696-9.942-3.766-1.725-8.218-.07-9.942 3.696-9.957 21.74-15.006 44.97-15.006 69.042 0 91.533 74.468 166 166 166s166-74.467 166-166-74.468-166-166-166z"/><path d="m256 332c41.906 0 76-34.093 76-76s-34.094-76-76-76-76 34.093-76 76 34.094 76 76 76zm0-137c33.636 0 61 27.364 61 61s-27.364 61-61 61-61-27.364-61-61 27.364-61 61-61z"/><path d="m256 302c25.364 0 46-20.636 46-46s-20.636-46-46-46-46 20.636-46 46 20.636 46 46 46zm0-77c17.094 0 31 13.907 31 31s-13.906 31-31 31-31-13.907-31-31 13.906-31 31-31z"/></g></svg>