<svg id="Capa_1" enable-background="new 0 0 511.978 511.978" height="512" viewBox="0 0 511.978 511.978" width="512" xmlns="http://www.w3.org/2000/svg"><g><path d="m55.281 55.281c-5.858 5.858-5.858 15.355 0 21.213l63.64 63.64 21.213-21.213-63.64-63.64c-5.858-5.858-15.355-5.858-21.213 0z" fill="#7d8fe5"/><circle cx="263.478" cy="263.478" fill="#95b0ed" r="241"/><path d="m263.478 52.478v422c116.532 0 211-94.468 211-211s-94.468-211-211-211z" fill="#c4f3ff"/><path d="m444.478 263.478c0-116.532-81.036-211-181-211-116.532 0-211 94.468-211 211s94.468 211 211 211c99.963 0 181-94.468 181-211z" fill="#fff"/><circle cx="300.247" cy="300.247" fill="#acd2f6" r=".5"/><path d="m300.601 300.601c12.023-12.023 16.985-28.425 14.907-44.071l77.278-101.362c4.48-5.88 4.05-14.304-1.322-19.676s-13.797-5.803-19.676-1.322l-101.362 77.278c-15.646-2.078-32.048 2.884-44.071 14.907l15.91 58.336z" fill="#ff336d"/><path d="m211.448 270.426-77.278 101.362c-4.48 5.88-4.05 14.305 1.322 19.676s13.797 5.803 19.676 1.322l101.362-77.278c15.646 2.078 32.049-2.884 44.071-14.907l-74.246-74.246c-12.023 12.022-16.985 28.425-14.907 44.071z" fill="#22aef4"/><circle cx="263.478" cy="263.478" fill="#acd2f6" r="22.5"/><path d="m169.624 381.765c25.771 20.475 58.382 32.713 93.854 32.713 83.395 0 151-67.605 151-151 0-35.472-12.237-68.083-32.713-93.854" fill="none" stroke="#acd2f6" stroke-linejoin="round" stroke-miterlimit="10" stroke-width="15"/><path d="m263.478 104.978c-87.397 0-158.5 71.103-158.5 158.5 0 24.623 5.503 48.232 16.357 70.172 1.308 2.645 3.965 4.177 6.728 4.177 1.117 0 2.251-.251 3.32-.779 3.712-1.837 5.233-6.336 3.396-10.048-9.821-19.854-14.801-41.226-14.801-63.521 0-79.126 64.374-143.5 143.5-143.5 32.752 0 63.593 10.749 89.189 31.085l9.331-11.744c-28.277-22.467-62.344-34.342-98.52-34.342z" fill="#acd2f6"/><path d="m417.981 108.975c-41.269-41.27-96.14-63.997-154.503-63.997s-113.234 22.728-154.503 63.997-63.997 96.14-63.997 154.503 22.728 113.233 63.997 154.503 96.14 63.997 154.503 63.997 113.234-22.728 154.503-63.997 63.997-96.14 63.997-154.503-22.728-113.234-63.997-154.503zm-154.503 358.003c-112.21 0-203.5-91.29-203.5-203.5s91.29-203.5 203.5-203.5 203.5 91.29 203.5 203.5-91.29 203.5-203.5 203.5z"/><path d="m439.194 87.762c-46.935-46.936-109.339-72.784-175.716-72.784-58.818 0-114.507 20.311-159.088 57.592l-11.422-11.422c5.035-16.658.616-34.739-11.903-47.259-18.521-18.52-48.654-18.52-67.175 0-18.52 18.521-18.52 48.656 0 67.176 9.121 9.122 21.191 13.945 33.516 13.944 4.591 0 9.218-.676 13.74-2.043l11.424 11.424c-37.281 44.58-57.592 100.269-57.592 159.088 0 66.377 25.849 128.78 72.784 175.716s109.339 72.784 175.716 72.784 128.781-25.849 175.716-72.784c46.936-46.936 72.784-109.339 72.784-175.716s-25.849-128.781-72.784-175.716zm-414.697-17.304c-12.671-12.671-12.671-33.29 0-45.961 12.672-12.671 33.29-12.672 45.962 0 6.469 6.469 9.778 15.109 9.526 23.862-3.985-3.216-8.905-4.971-14.097-4.971-6.01 0-11.661 2.341-15.91 6.59-4.25 4.25-6.59 9.899-6.59 15.91 0 5.193 1.755 10.112 4.972 14.097-8.754.252-17.394-3.057-23.863-9.527zm36.088.734c-1.417-1.417-2.197-3.301-2.197-5.304 0-2.004.78-3.887 2.197-5.304 1.417-1.416 3.3-2.196 5.303-2.196s3.886.78 5.303 2.197l21.961 21.96c-1.816 1.712-3.618 3.444-5.39 5.217-1.772 1.772-3.504 3.574-5.216 5.39zm202.893 425.786c-128.752 0-233.5-104.748-233.5-233.5s104.748-233.5 233.5-233.5 233.5 104.748 233.5 233.5-104.748 233.5-233.5 233.5z"/><path d="m367.241 128.205-98.99 75.471c-17.589-1.421-34.64 4.817-47.199 17.376s-18.797 29.609-17.376 47.199l-75.472 98.992c-6.791 8.911-5.937 21.604 1.984 29.526 7.921 7.921 20.614 8.774 29.527 1.983l98.99-75.471c17.589 1.421 34.64-4.817 47.199-17.376s18.797-29.609 17.376-47.2l75.471-98.991c6.791-8.911 5.937-21.604-1.984-29.526-7.921-7.921-20.614-8.774-29.526-1.983zm-109.725 179.868c-1.967-.261-3.957.268-5.534 1.471l-101.36 77.277c-2.966 2.26-7.191 1.977-9.827-.66-2.636-2.636-2.92-6.861-.661-9.826l77.278-101.362c1.203-1.578 1.732-3.568 1.471-5.534-1.527-11.502 1.335-22.827 7.915-32.036l10.836 10.836c-6.778 11.5-5.234 26.585 4.632 36.452s24.952 11.41 36.452 4.632l10.836 10.836c-9.211 6.579-20.536 9.441-32.038 7.914zm-4.645-55.202c5.849-5.849 15.365-5.848 21.213 0 5.848 5.849 5.849 15.364 0 21.213s-15.365 5.849-21.213 0c-5.848-5.848-5.849-15.364 0-21.213zm133.951-102.25-77.278 101.361c-1.203 1.578-1.732 3.568-1.47 5.534 1.527 11.502-1.335 22.827-7.914 32.036l-10.836-10.836c6.778-11.5 5.234-26.585-4.632-36.452s-24.952-11.41-36.452-4.632l-10.836-10.836c9.209-6.579 20.534-9.441 32.036-7.914 1.967.261 3.957-.268 5.534-1.47l101.36-77.277c2.966-2.26 7.191-1.977 9.827.66s2.92 6.861.661 9.826z"/></g></svg>