<svg id="Capa_1" enable-background="new 0 0 512 512" height="512" viewBox="0 0 512 512" width="512" xmlns="http://www.w3.org/2000/svg"><g><path d="m67.5 256c0-104.106 84.394-188.5 188.5-188.5v-30c-120.674 0-218.5 97.826-218.5 218.5s97.826 218.5 218.5 218.5v-30c-104.106 0-188.5-84.394-188.5-188.5z" fill="#7d8fe5"/><path d="m256 37.5v30c104.106 0 188.5 84.394 188.5 188.5s-84.394 188.5-188.5 188.5v30c120.674 0 218.5-97.826 218.5-218.5s-97.826-218.5-218.5-218.5z" fill="#666ddc"/><path d="m256 127.5v30c54.4 0 98.5 44.1 98.5 98.5s-44.1 98.5-98.5 98.5v30c70.969 0 128.5-57.531 128.5-128.5s-57.531-128.5-128.5-128.5z" fill="#ff336d"/><path d="m157.5 256c0-54.4 44.1-98.5 98.5-98.5v-30c-70.969 0-128.5 57.531-128.5 128.5s57.531 128.5 128.5 128.5v-30c-54.4 0-98.5-44.1-98.5-98.5z" fill="#ff545a"/><path d="m256 217.5v77c21.263 0 38.5-17.237 38.5-38.5s-17.237-38.5-38.5-38.5z" fill="#666ddc"/><g fill="#7d8fe5"><path d="m264.5 256c0-21.263-3.806-38.5-8.5-38.5-21.263 0-38.5 17.237-38.5 38.5s17.237 38.5 38.5 38.5c4.694 0 8.5-17.237 8.5-38.5z"/><path d="m256 324.5c-8.284 0-15 6.716-15 15v150c0 8.284 6.716 15 15 15s15-6.716 15-15v-150c0-8.284-6.716-15-15-15z"/><path d="m256 7.5c-8.284 0-15 6.716-15 15v150c0 8.284 6.716 15 15 15s15-6.716 15-15v-150c0-8.284-6.716-15-15-15z"/></g><path d="m187.5 256c0-8.284-6.716-15-15-15h-150c-8.284 0-15 6.716-15 15s6.716 15 15 15h150c8.284 0 15-6.716 15-15z" fill="#666ddc"/><path d="m504.5 256c0-8.284-6.716-15-15-15h-150c-8.284 0-15 6.716-15 15s6.716 15 15 15h150c8.284 0 15-6.716 15-15z" fill="#666ddc"/><path d="m256 210c-25.364 0-46 20.636-46 46s20.636 46 46 46 46-20.636 46-46-20.636-46-46-46zm0 77c-17.093 0-31-13.906-31-31s13.907-31 31-31 31 13.906 31 31-13.907 31-31 31z"/><path d="m489.5 233.5h-8.624c-5.137-51.778-28.085-100.302-65.08-137.296-36.994-36.995-85.518-59.943-137.296-65.081v-8.623c0-12.406-10.093-22.5-22.5-22.5s-22.5 10.094-22.5 22.5v8.623c-51.778 5.138-100.302 28.086-137.296 65.081-36.995 36.994-59.943 85.518-65.08 137.296h-8.624c-12.407 0-22.5 10.094-22.5 22.5s10.093 22.5 22.5 22.5h8.624c5.137 51.778 28.085 100.302 65.08 137.296 36.995 36.995 85.519 59.943 137.296 65.081v8.623c0 12.406 10.093 22.5 22.5 22.5s22.5-10.094 22.5-22.5v-8.623c51.778-5.138 100.302-28.086 137.296-65.081 36.995-36.994 59.943-85.518 65.08-137.296h8.624c12.407 0 22.5-10.094 22.5-22.5s-10.093-22.5-22.5-22.5zm0 30h-15.522c-3.945 0-7.216 3.057-7.483 6.992-7.097 104.644-91.359 188.906-196.002 196.003-3.936.267-6.993 3.537-6.993 7.482v15.523c0 4.136-3.364 7.5-7.5 7.5s-7.5-3.364-7.5-7.5v-15.522c0-3.945-3.057-7.216-6.993-7.482-104.643-7.097-188.905-91.359-196.002-196.003-.267-3.936-3.538-6.992-7.483-6.992h-15.522c-4.136 0-7.5-3.364-7.5-7.5s3.364-7.5 7.5-7.5h15.522c3.945 0 7.216-3.057 7.483-6.992 7.097-104.644 91.359-188.906 196.002-196.003 3.936-.267 6.993-3.537 6.993-7.482v-15.524c0-4.136 3.364-7.5 7.5-7.5s7.5 3.364 7.5 7.5v15.522c0 3.945 3.057 7.216 6.993 7.482 104.643 7.097 188.905 91.359 196.002 196.003.267 3.936 3.538 6.992 7.483 6.992h15.522c4.136 0 7.5 3.364 7.5 7.5s-3.364 7.501-7.5 7.501z"/><path d="m339.5 248.5h104.406c2.091 0 4.088-.873 5.507-2.409 1.42-1.536 2.134-3.595 1.97-5.68-3.649-46.343-23.819-90.025-56.794-123-32.975-32.976-76.658-53.146-123-56.794-2.087-.164-4.144.55-5.68 1.969-1.536 1.42-2.409 3.416-2.409 5.508v104.406c0 4.136-3.364 7.5-7.5 7.5s-7.5-3.364-7.5-7.5v-104.406c0-2.092-.873-4.088-2.409-5.508s-3.597-2.136-5.68-1.969c-46.343 3.648-90.025 23.818-123 56.794-32.975 32.975-53.145 76.657-56.794 123-.164 2.085.55 4.144 1.97 5.68 1.419 1.536 3.416 2.409 5.507 2.409h104.406c4.136 0 7.5 3.364 7.5 7.5s-3.364 7.5-7.5 7.5h-104.406c-2.091 0-4.088.873-5.507 2.409-1.42 1.536-2.134 3.595-1.97 5.68 3.649 46.343 23.819 90.025 56.794 123 32.975 32.976 76.658 53.146 123 56.794 2.087.164 4.145-.55 5.68-1.969 1.536-1.42 2.409-3.416 2.409-5.508v-104.406c0-4.136 3.364-7.5 7.5-7.5s7.5 3.364 7.5 7.5v104.406c0 2.092.873 4.088 2.409 5.508 1.391 1.285 3.21 1.992 5.09 1.992.196 0 .393-.008.589-.023 46.343-3.648 90.025-23.818 123-56.794 32.975-32.975 53.145-76.657 56.794-123 .164-2.085-.55-4.144-1.97-5.68-1.419-1.536-3.416-2.409-5.507-2.409h-104.405c-4.136 0-7.5-3.364-7.5-7.5s3.364-7.5 7.5-7.5zm-61-111.383c49.107 9.159 87.225 47.277 96.384 96.383h-15.295c-4.278-19.872-14.084-37.903-28.634-52.453-14.55-14.551-32.582-24.357-52.454-28.635v-15.295zm157.115 96.383h-45.489c-4.645-27.719-17.971-53.666-37.965-73.66-19.994-19.995-45.941-33.32-73.66-37.966v-45.489c82.598 10.148 146.966 74.516 157.114 157.115zm-202.115-81.088c-19.872 4.278-37.903 14.084-52.453 28.635-14.55 14.55-24.357 32.581-28.635 52.453h-15.295c9.159-49.106 47.276-87.224 96.383-96.383zm0-76.027v45.489c-27.719 4.646-53.665 17.971-73.66 37.966-19.995 19.994-33.32 45.941-37.965 73.66h-45.49c10.148-82.599 74.516-146.967 157.115-157.115zm-157.115 202.115h76.027c4.278 19.872 14.084 37.903 28.635 52.453 14.55 14.551 32.581 24.357 52.453 28.635v15.319c-41.51-7.758-75.875-36.466-90.858-76.534-1.451-3.88-5.773-5.851-9.652-4.397-3.88 1.45-5.849 5.771-4.398 9.651 8.674 23.194 23.566 43.614 43.066 59.053 18.029 14.274 39.291 23.673 61.842 27.436v45.5c-82.599-10.149-146.967-74.517-157.115-157.116zm202.115 81.088c19.872-4.278 37.903-14.084 52.454-28.635 14.55-14.55 24.357-32.581 28.634-52.453h15.295c-9.159 49.106-47.277 87.224-96.384 96.383v-15.295zm0 76.027v-45.489c27.719-4.646 53.666-17.971 73.66-37.966 19.995-19.994 33.32-45.941 37.965-73.66h45.489c-10.147 82.599-74.515 146.967-157.114 157.115zm61-157.115h4.67c-8.199 31.956-33.715 57.47-65.67 65.67v-4.67c0-12.406-10.093-22.5-22.5-22.5s-22.5 10.094-22.5 22.5v4.67c-31.955-8.2-57.47-33.714-65.67-65.67h4.67c12.407 0 22.5-10.094 22.5-22.5s-10.093-22.5-22.5-22.5h-4.67c8.2-31.956 33.715-57.47 65.67-65.67v4.67c0 12.406 10.093 22.5 22.5 22.5s22.5-10.094 22.5-22.5v-4.67c31.956 8.2 57.471 33.714 65.67 65.67h-4.67c-12.407 0-22.5 10.094-22.5 22.5s10.093 22.5 22.5 22.5z"/></g></svg>