<svg id="Capa_1" enable-background="new 0 0 512 512" height="512" viewBox="0 0 512 512" width="512" xmlns="http://www.w3.org/2000/svg"><g><path d="m354.5 329.5-227 130h-90c0 24.853 20.147 45 45 45h317z" fill="#c4f3ff"/><path d="m354.5 329.5v130c0 24.853 20.147 45 45 45h30v-175z" fill="#acd2f6"/><path d="m354.5 182.5-227-130h-90c0-24.853 20.147-45 45-45h317z" fill="#c4f3ff"/><path d="m354.5 182.5v-130c0-24.853 20.147-45 45-45h30v175z" fill="#acd2f6"/><path d="m429.5 7.5c-5.261 0-10.307.912-15 2.571v491.858c4.693 1.659 9.739 2.571 15 2.571 24.853 0 45-20.147 45-45v-407c0-24.853-20.147-45-45-45z" fill="#c4f3ff"/><path d="m414.5 10.071c-17.476 6.179-30 22.837-30 42.429h-257v407h257c0 19.592 12.524 36.25 30 42.429 17.476-6.179 30-22.837 30-42.429v-407c0-19.592-12.524-36.25-30-42.429z" fill="#fff"/><path d="m444.5 223.713-21.213-21.213-32.287 32.287-32.287-32.287-21.213 21.213 32.287 32.287-32.287 32.287 21.213 21.213 32.287-32.287 32.287 32.287 21.213-21.213-32.287-32.287z" fill="#ff336d"/><path d="m429.5 0h-347c-28.949 0-52.5 23.552-52.5 52.5 0 4.143 3.358 7.5 7.5 7.5h82.5v369.5c0 4.143 3.358 7.5 7.5 7.5s7.5-3.357 7.5-7.5v-369.5h249.5c4.143 0 7.5-3.357 7.5-7.5 0-20.678 16.822-37.5 37.5-37.5s37.5 16.822 37.5 37.5v407c0 20.678-16.822 37.5-37.5 37.5s-37.5-16.822-37.5-37.5c0-4.143-3.357-7.5-7.5-7.5h-347c-4.142 0-7.5 3.357-7.5 7.5 0 28.948 23.551 52.5 52.5 52.5h347c28.948 0 52.5-23.552 52.5-52.5v-407c0-28.948-23.552-52.5-52.5-52.5zm-51.966 45h-331.781c3.485-17.096 18.638-30 36.747-30h310.293c-8.051 7.882-13.582 18.327-15.259 30zm-295.034 452c-18.109 0-33.262-12.904-36.747-30h331.781c1.677 11.673 7.208 22.118 15.259 30z"/><path d="m332.196 293.591 21.213 21.213c2.93 2.928 7.678 2.928 10.607 0l26.984-26.985 26.983 26.984c1.465 1.464 3.385 2.196 5.304 2.196s3.839-.732 5.304-2.196l21.213-21.213c2.929-2.93 2.929-7.678 0-10.607l-26.985-26.983 26.984-26.983c2.929-2.93 2.929-7.678 0-10.607l-21.213-21.213c-2.93-2.928-7.678-2.928-10.607 0l-26.983 26.984-26.983-26.984c-2.93-2.928-7.678-2.928-10.607 0l-21.213 21.213c-2.929 2.93-2.929 7.678 0 10.607l26.984 26.983-26.984 26.983c-2.929 2.93-2.929 7.678-.001 10.608zm42.895-32.287c2.929-2.93 2.929-7.678 0-10.607l-26.984-26.983 10.606-10.606 26.983 26.984c2.93 2.928 7.678 2.928 10.607 0l26.983-26.984 10.606 10.606-26.984 26.983c-2.929 2.93-2.929 7.678 0 10.607l26.984 26.983-10.606 10.606-26.983-26.984c-1.465-1.464-3.385-2.196-5.304-2.196s-3.839.732-5.304 2.196l-26.983 26.984-10.606-10.606z"/><path d="m172.5 263.5c4.142 0 7.5-3.357 7.5-7.5s-3.358-7.5-7.5-7.5h-15c-4.142 0-7.5 3.357-7.5 7.5s3.358 7.5 7.5 7.5z"/><path d="m217.5 263.5c4.142 0 7.5-3.357 7.5-7.5s-3.358-7.5-7.5-7.5h-15c-4.142 0-7.5 3.357-7.5 7.5s3.358 7.5 7.5 7.5z"/><path d="m262.5 263.5c4.143 0 7.5-3.357 7.5-7.5s-3.357-7.5-7.5-7.5h-15c-4.142 0-7.5 3.357-7.5 7.5s3.358 7.5 7.5 7.5z"/><path d="m307.5 263.5c4.143 0 7.5-3.357 7.5-7.5s-3.357-7.5-7.5-7.5h-15c-4.143 0-7.5 3.357-7.5 7.5s3.357 7.5 7.5 7.5z"/></g></svg>