<svg id="Capa_1" enable-background="new 0 0 512 512" height="512" viewBox="0 0 512 512" width="512" xmlns="http://www.w3.org/2000/svg"><g><path d="m354.5 329.5-227 130h-90c0 24.853 20.147 45 45 45h317z" fill="#c4f3ff"/><path d="m354.5 329.5v130c0 24.853 20.147 45 45 45h30v-175z" fill="#acd2f6"/><path d="m354.5 182.5-227-130h-90c0-24.853 20.147-45 45-45h317z" fill="#c4f3ff"/><path d="m354.5 182.5v-130c0-24.853 20.147-45 45-45h30v175z" fill="#acd2f6"/><path d="m429.5 7.5c-5.261 0-10.307.912-15 2.571v491.858c4.693 1.659 9.739 2.571 15 2.571 24.853 0 45-20.147 45-45v-407c0-24.853-20.147-45-45-45z" fill="#c4f3ff"/><path d="m414.5 10.071c-17.476 6.179-30 22.837-30 42.429h-257v407h257c0 19.592 12.524 36.25 30 42.429 17.476-6.179 30-22.837 30-42.429v-407c0-19.592-12.524-36.25-30-42.429z" fill="#fff"/><path d="m410.724 316.43-83.5-150c-5.124-9.202-14.945-15.43-26.224-15.43-6.392 0-12.313 2.003-17.179 5.411l70.679 204.589h30c16.569 0 30-13.431 30-30 0-5.289-1.374-10.255-3.776-14.57z" fill="#ff0787"/><path d="m384.5 331-83.511-149.979-8.122-14.591c-2.22-3.987-5.325-7.413-9.045-10.019-3.72 2.606-6.825 6.031-9.045 10.019l-83.5 150c-2.403 4.315-3.776 9.281-3.776 14.57 0 16.569 13.431 30 30 30h137c16.568 0 29.999-13.431 29.999-30z" fill="#ff336d"/><path d="m217.5 331 83.489-149.979 83.511 149.979z" fill="#fff"/><circle cx="300.989" cy="301" r="7.5"/><path d="m429.5 0h-347c-28.948 0-52.5 23.552-52.5 52.5 0 4.143 3.357 7.5 7.5 7.5h82.5v369.5c0 4.143 3.357 7.5 7.5 7.5s7.5-3.357 7.5-7.5v-369.5h249.5c4.143 0 7.5-3.357 7.5-7.5 0-20.678 16.822-37.5 37.5-37.5s37.5 16.822 37.5 37.5v407c0 20.678-16.822 37.5-37.5 37.5s-37.5-16.822-37.5-37.5c0-4.143-3.357-7.5-7.5-7.5h-347c-4.143 0-7.5 3.357-7.5 7.5 0 28.948 23.552 52.5 52.5 52.5h347c28.948 0 52.5-23.552 52.5-52.5v-407c0-28.948-23.552-52.5-52.5-52.5zm-51.966 45h-331.781c3.485-17.096 18.638-30 36.747-30h310.293c-8.051 7.882-13.582 18.327-15.259 30zm-295.034 452c-18.109 0-33.262-12.904-36.747-30h331.781c1.677 11.673 7.208 22.118 15.259 30z"/><path d="m384.5 368.5c20.678 0 37.5-16.822 37.5-37.5 0-6.368-1.634-12.668-4.724-18.219 0 .001-83.5-150.001-83.5-150.001-6.623-11.893-19.183-19.28-32.776-19.28s-26.153 7.388-32.776 19.282l-83.5 149.999c-3.09 5.551-4.724 11.851-4.724 18.219 0 20.678 16.822 37.5 37.5 37.5zm-189.5-37.5c0-3.82.979-7.598 2.829-10.923l83.5-149.998c3.977-7.143 11.515-11.579 19.671-11.579s15.694 4.437 19.671 11.577l83.5 150c1.85 3.325 2.829 7.103 2.829 10.923 0 12.406-10.094 22.5-22.5 22.5h-167c-12.406 0-22.5-10.094-22.5-22.5z"/><path d="m384.5 338.5c2.659 0 5.119-1.407 6.466-3.699 1.348-2.293 1.38-5.127.087-7.449l-83.512-149.979c-1.324-2.378-3.832-3.852-6.553-3.852-2.722 0-5.229 1.475-6.553 3.853l-83.488 149.979c-1.293 2.322-1.26 5.156.087 7.448 1.348 2.292 3.808 3.699 6.466 3.699zm-83.511-142.061 70.75 127.061h-141.48z"/><path d="m300.988 278.5c4.143 0 7.5-3.357 7.5-7.5v-29.979c0-4.143-3.357-7.5-7.5-7.5s-7.5 3.357-7.5 7.5v29.979c0 4.143 3.358 7.5 7.5 7.5z"/></g></svg>