<svg id="Capa_1" enable-background="new 0 0 512 512" height="512" viewBox="0 0 512 512" width="512" xmlns="http://www.w3.org/2000/svg"><g><path d="m316 262.5v-30h-60v212h105v-30c0-76-45-76-45-152z" fill="#acd2f6"/><path d="m312.686 353.785c-11.889-20.08-26.686-45.069-26.686-91.285v-30h-90v30c0 76-45 76-45 152v30h180v-30c0-29.784-8.082-43.435-18.314-60.715z" fill="#c4f3ff"/><path d="m376 414.5h-30v60h30c16.569 0 30-13.432 30-30 0-16.569-13.431-30-30-30z" fill="#95b0ed"/><path d="m376 444.5c0-16.569-13.431-30-30-30h-210c-16.569 0-30 13.431-30 30 0 16.568 13.431 30 30 30h210c16.569 0 30-13.432 30-30z" fill="#acd2f6"/><path d="m256 187.5h60v60h-60z" fill="#acd2f6"/><path d="m196 187.5h90v60h-90z" fill="#c4f3ff"/><path d="m316 157.5h-30l45 45h30c0-24.853-20.147-45-45-45z" fill="#95b0ed"/><path d="m286 157.5h-90c-24.853 0-45 20.147-45 45h180c0-24.853-20.147-45-45-45z" fill="#acd2f6"/><path d="m256 7.5v150c41.421 0 75-33.579 75-75s-33.579-75-75-75z" fill="#acd2f6"/><path d="m301 82.5c0-41.421-20.147-75-45-75-41.421 0-75 33.579-75 75s33.579 75 75 75c24.853 0 45-33.579 45-75z" fill="#c4f3ff"/><path d="m331 232.5h-30v30h30c8.284 0 15-6.716 15-15s-6.715-15-15-15z" fill="#95b0ed"/><path d="m316 247.5c0-8.284-6.716-15-15-15h-120c-8.284 0-15 6.716-15 15s6.716 15 15 15h120c8.285 0 15-6.716 15-15z" fill="#acd2f6"/><path d="m390 474.5h-30l30 30h30c0-16.569-13.431-30-30-30z" fill="#acd2f6"/><path d="m360 474.5h-238c-16.569 0-30 13.431-30 30h298c0-16.569-13.431-30-30-30z" fill="#c4f3ff"/><path d="m403.798 469.642c6.026-6.656 9.702-15.477 9.702-25.142 0-20.678-16.822-37.5-37.5-37.5h-7.648c-1.396-35.154-12.569-54.031-23.399-72.321-10.235-17.287-19.938-33.695-21.288-64.679h7.335c12.406 0 22.5-10.094 22.5-22.5s-10.094-22.5-22.5-22.5h-7.5v-15h37.5c4.143 0 7.5-3.357 7.5-7.5 0-28.948-23.552-52.5-52.5-52.5h-12.654c21.237-14.941 35.154-39.619 35.154-67.5 0-45.49-37.01-82.5-82.5-82.5s-82.5 37.01-82.5 82.5c0 27.881 13.917 52.559 35.154 67.5h-12.654c-28.948 0-52.5 23.552-52.5 52.5 0 4.143 3.357 7.5 7.5 7.5h37.5v15h-7.5c-12.406 0-22.5 10.094-22.5 22.5s10.094 22.5 22.5 22.5h7.341c-1.348 30.99-11.058 47.39-21.294 64.679-10.83 18.291-22.003 37.167-23.399 72.321h-7.648c-20.678 0-37.5 16.822-37.5 37.5 0 9.665 3.676 18.485 9.702 25.142-13.868 5.509-23.702 19.052-23.702 34.858 0 4.143 3.357 7.5 7.5 7.5h328c4.143 0 7.5-3.357 7.5-7.5 0-15.806-9.834-29.349-23.702-34.858zm-215.298-387.142c0-37.22 30.28-67.5 67.5-67.5s67.5 30.28 67.5 67.5-30.28 67.5-67.5 67.5-67.5-30.28-67.5-67.5zm-29.247 112.5c3.485-17.096 18.638-30 36.747-30h120c18.109 0 33.262 12.904 36.747 30zm149.247 15v15h-105v-15zm-128.547 132.321c11.576-19.551 23.547-39.768 23.547-79.821 0-4.143-3.357-7.5-7.5-7.5h-15c-4.136 0-7.5-3.364-7.5-7.5s3.364-7.5 7.5-7.5h150c4.136 0 7.5 3.364 7.5 7.5s-3.364 7.5-7.5 7.5h-105c-4.143 0-7.5 3.357-7.5 7.5s3.357 7.5 7.5 7.5h82.648c1.396 35.154 12.569 54.031 23.399 72.321 10.235 17.287 19.938 33.695 21.288 64.679h-194.669c1.349-30.984 11.052-47.392 21.287-64.679zm-43.953 79.679h240c12.406 0 22.5 10.094 22.5 22.5s-10.094 22.5-22.5 22.5h-240c-12.406 0-22.5-10.094-22.5-22.5s10.094-22.5 22.5-22.5zm-35.215 75c3.096-8.73 11.437-15 21.215-15h268c9.778 0 18.119 6.27 21.215 15z"/></g></svg>