<svg id="Capa_1" enable-background="new 0 0 512 512" height="512" viewBox="0 0 512 512" width="512" xmlns="http://www.w3.org/2000/svg"><g><path d="m219.5 80.5v424c117.084 0 212-94.916 212-212s-94.916-212-212-212z" fill="#ff336d"/><path d="m401.5 292.5c0-117.084-81.484-212-182-212-117.084 0-212 94.916-212 212s94.916 212 212 212c100.516 0 182-94.916 182-212z" fill="#ff545a"/><circle cx="219.5" cy="292.5" fill="#fff" r="143.5"/><path d="m219.5 179v227c62.684 0 113.5-50.816 113.5-113.5s-50.816-113.5-113.5-113.5z" fill="#ff336d"/><path d="m303 292.5c0-62.684-37.384-113.5-83.5-113.5-62.684 0-113.5 50.816-113.5 113.5s50.816 113.5 113.5 113.5c46.116 0 83.5-50.816 83.5-113.5z" fill="#ff545a"/><circle cx="219.5" cy="292.5" fill="#666ddc" r="45"/><path d="m387.827 124.173 53.034 10.606 31.819-31.82-31.819-31.819z" fill="#666ddc"/><path d="m451.467 60.533-31.82 31.82 53.033 10.606 31.82-31.819z" fill="#95b0ed"/><path d="m377.221 71.14 10.606 53.033 53.034-53.033-31.82-31.82z" fill="#7d8fe5"/><path d="m440.861 7.5-31.82 31.82 10.606 53.033 31.82-31.82z" fill="#acd2f6"/><path d="m472.68 39.32c-5.858-5.858-15.355-5.858-21.213 0l-242.574 242.573c-5.858 5.858-5.858 15.355 0 21.213s15.355 5.858 21.213 0l242.574-242.573c5.858-5.858 5.858-15.355 0-21.213z" fill="#ff9c6c"/><path d="m511.678 68.967c-.801-2.648-2.995-4.639-5.707-5.181l-23.383-4.677c3.689-8.269 2.17-18.317-4.605-25.092s-16.823-8.294-25.092-4.605l-4.677-23.383c-.542-2.713-2.533-4.907-5.181-5.707-2.647-.802-5.521-.081-7.476 1.875l-63.64 63.64c-1.773 1.773-2.543 4.316-2.051 6.774l6.284 31.419-18.176 18.176c-39.046-31.775-87.938-49.206-138.474-49.206-58.63 0-113.752 22.832-155.21 64.29s-64.29 96.579-64.29 155.21 22.832 113.752 64.29 155.21 96.58 64.29 155.21 64.29 113.752-22.832 155.21-64.29 64.29-96.579 64.29-155.21c0-50.536-17.432-99.428-49.205-138.475l18.175-18.175 31.419 6.284c2.459.492 5.001-.278 6.774-2.051l63.64-63.64c1.956-1.956 2.677-4.83 1.875-7.476zm-44.301-24.344c2.924 2.924 2.924 7.682 0 10.607l-242.574 242.573c-2.924 2.924-7.682 2.924-10.607 0s-2.924-7.682 0-10.607l242.574-242.573c2.925-2.924 7.682-2.924 10.607 0zm-179.714 147.894c-47.553-32.487-112.527-26.773-153.723 14.423-47.178 47.178-47.178 123.942 0 171.12s123.942 47.178 171.12 0c34.163-34.163 44.732-85.268 26.925-130.197-1.525-3.852-5.885-5.734-9.735-4.209-3.851 1.527-5.735 5.885-4.209 9.736 15.6 39.363 6.342 84.135-23.587 114.064-41.329 41.329-108.577 41.329-149.907 0s-41.329-108.578 0-149.907c35.412-35.412 90.867-40.887 132.286-14.199l-39.707 39.707c-18.917-6.737-40.333-2.093-54.748 12.322-20.469 20.469-20.47 53.776 0 74.246s53.777 20.469 74.246 0c14.416-14.416 19.06-35.832 12.322-54.749l61.316-61.316c38.521 53.777 32.847 127.666-14.595 175.108-53.026 53.026-139.307 53.026-192.333 0s-53.026-139.307 0-192.333c47.442-47.442 121.331-53.116 175.108-14.595zm-84.073 115.893c8.773 8.773 23.047 8.772 31.82 0l21.207-21.207c1.624 11.469-2.123 23.336-10.6 31.813-14.621 14.621-38.412 14.621-53.033 0s-14.621-38.412 0-53.033c8.477-8.477 20.343-12.224 31.813-10.6l-21.207 21.207c-8.772 8.773-8.773 23.047 0 31.82zm232.664-285.697 3.536 17.678-19.073 19.073-3.536-17.678zm-50.892 50.892 19.073-19.073 3.536 17.678-19.073 19.073zm38.638 218.895c0 112.762-91.738 204.5-204.5 204.5s-204.5-91.738-204.5-204.5 91.738-204.5 204.5-204.5c46.567 0 91.636 15.883 127.811 44.869l-38.13 38.13c-27.909-20.646-62.12-31.023-97.087-29.317-37.505 1.83-72.794 17.472-99.367 44.045-58.875 58.875-58.875 154.671 0 213.546s154.671 58.875 213.546 0c26.572-26.572 42.214-61.861 44.045-99.367 1.706-34.967-8.671-69.179-29.317-97.087l38.13-38.13c28.986 36.176 44.869 81.244 44.869 127.811zm14.395-165.862-17.678-3.536 19.073-19.073 17.678 3.535zm31.82-31.82-17.678-3.536 19.073-19.072 17.678 3.536z"/></g></svg>