<svg id="Capa_1" enable-background="new 0 0 512 512" height="512" viewBox="0 0 512 512" width="512" xmlns="http://www.w3.org/2000/svg"><g><path d="m256 7.5c-56.195 0-101.75 45.555-101.75 101.75 0 24.204 8.457 46.429 22.569 63.896h158.362c14.112-17.466 22.569-39.692 22.569-63.896 0-56.195-45.555-101.75-101.75-101.75z" fill="#c4f3ff"/><path d="m308.833 157.5h-30l30 38.71c10.06-6.127 18.978-13.943 26.348-23.064-5.089-9.322-14.979-15.646-26.348-15.646z" fill="#22aef4"/><path d="m278.833 157.5h-75.667c-11.368 0-21.259 6.324-26.348 15.646 18.654 23.086 47.191 37.854 79.182 37.854 19.351 0 37.433-5.411 52.833-14.79v-8.71c0-16.569-13.431-30-30-30z" fill="#14cfff"/><path d="m256 37.5v90c24.853 0 45-20.147 45-45s-20.147-45-45-45z" fill="#ff9c6c"/><path d="m271 82.5c0-24.853-6.716-45-15-45-24.853 0-45 20.147-45 45s20.147 45 45 45c8.284 0 15-20.147 15-45z" fill="#ffc190"/><path d="m139.25 301c-56.195 0-101.75 45.555-101.75 101.75 0 24.204 8.457 46.429 22.569 63.896h158.362c14.112-17.467 22.569-39.692 22.569-63.896 0-56.195-45.555-101.75-101.75-101.75z" fill="#c4f3ff"/><path d="m192.083 451h-30l30 38.71c10.06-6.127 18.978-13.943 26.348-23.064-5.089-9.322-14.979-15.646-26.348-15.646z" fill="#ff9733"/><path d="m162.083 451h-75.666c-11.368 0-21.259 6.324-26.348 15.646 18.653 23.086 47.19 37.854 79.181 37.854 19.351 0 37.433-5.411 52.833-14.79v-8.71c0-16.569-13.431-30-30-30z" fill="#ffb44e"/><path d="m139.25 331v90c24.853 0 45-20.147 45-45s-20.147-45-45-45z" fill="#ff9c6c"/><path d="m154.25 376c0-24.853-6.716-45-15-45-24.853 0-45 20.147-45 45s20.147 45 45 45c8.284 0 15-20.147 15-45z" fill="#ffc190"/><path d="m372.75 301c-56.195 0-101.75 45.555-101.75 101.75 0 24.204 8.457 46.429 22.569 63.896h158.362c14.112-17.466 22.569-39.692 22.569-63.896 0-56.195-45.555-101.75-101.75-101.75z" fill="#c4f3ff"/><path d="m425.583 451h-30l30 38.71c10.06-6.127 18.978-13.943 26.348-23.064-5.089-9.322-14.979-15.646-26.348-15.646z" fill="#ff0787"/><path d="m395.583 451h-75.667c-11.368 0-21.259 6.324-26.348 15.646 18.653 23.086 47.19 37.854 79.181 37.854 19.351 0 37.433-5.411 52.833-14.79v-8.71c.001-16.569-13.43-30-29.999-30z" fill="#ff336d"/><path d="m372.75 331v90c24.853 0 45-20.147 45-45s-20.147-45-45-45z" fill="#ff7647"/><path d="m387.75 376c0-24.853-6.716-45-15-45-24.853 0-45 20.147-45 45s20.147 45 45 45c8.284 0 15-20.147 15-45z" fill="#ff9c6c"/><path d="m308.5 82.5c0-28.948-23.551-52.5-52.5-52.5s-52.5 23.552-52.5 52.5 23.551 52.5 52.5 52.5 52.5-23.552 52.5-52.5zm-90 0c0-20.678 16.822-37.5 37.5-37.5s37.5 16.822 37.5 37.5-16.822 37.5-37.5 37.5-37.5-16.822-37.5-37.5z"/><path d="m139.25 323.5c-28.949 0-52.5 23.552-52.5 52.5s23.551 52.5 52.5 52.5 52.5-23.552 52.5-52.5-23.551-52.5-52.5-52.5zm0 90c-20.678 0-37.5-16.822-37.5-37.5s16.822-37.5 37.5-37.5 37.5 16.822 37.5 37.5-16.822 37.5-37.5 37.5z"/><path d="m139.25 293.5c-60.241 0-109.25 49.01-109.25 109.25s49.009 109.25 109.25 109.25 109.25-49.01 109.25-109.25-49.009-109.25-109.25-109.25zm0 203.5c-27.591 0-52.451-11.918-69.703-30.875 4.224-4.786 10.334-7.625 16.87-7.625h105.667c6.536 0 12.645 2.839 16.869 7.625-17.252 18.957-42.112 30.875-69.703 30.875zm78.971-42.864c-6.902-6.713-16.224-10.636-26.137-10.636h-105.667c-9.914 0-19.236 3.923-26.138 10.636-9.657-14.79-15.279-32.443-15.279-51.386 0-51.97 42.28-94.25 94.25-94.25s94.25 42.28 94.25 94.25c0 18.943-5.622 36.596-15.279 51.386z"/><path d="m372.75 323.5c-28.949 0-52.5 23.552-52.5 52.5s23.551 52.5 52.5 52.5 52.5-23.552 52.5-52.5-23.551-52.5-52.5-52.5zm0 90c-20.678 0-37.5-16.822-37.5-37.5s16.822-37.5 37.5-37.5 37.5 16.822 37.5 37.5-16.822 37.5-37.5 37.5z"/><path d="m372.75 293.5c-60.241 0-109.25 49.01-109.25 109.25s49.009 109.25 109.25 109.25 109.25-49.01 109.25-109.25-49.009-109.25-109.25-109.25zm0 203.5c-27.591 0-52.451-11.918-69.703-30.875 4.224-4.786 10.334-7.625 16.87-7.625h105.667c6.536 0 12.645 2.839 16.869 7.625-17.252 18.957-42.112 30.875-69.703 30.875zm52.833-53.5h-105.666c-9.914 0-19.236 3.923-26.138 10.636-9.657-14.79-15.279-32.443-15.279-51.386 0-51.97 42.28-94.25 94.25-94.25s94.25 42.28 94.25 94.25c0 18.943-5.622 36.596-15.279 51.386-6.902-6.713-16.224-10.636-26.138-10.636z"/><path d="m139.25 278.5c4.142 0 7.5-3.357 7.5-7.5v-22.5h218.5v22.5c0 4.143 3.358 7.5 7.5 7.5s7.5-3.357 7.5-7.5v-30c0-4.143-3.358-7.5-7.5-7.5h-233.5c-4.142 0-7.5 3.357-7.5 7.5v30c0 4.143 3.358 7.5 7.5 7.5z"/><path d="m163.396 152.119c3.876-1.46 5.835-5.785 4.375-9.662-3.996-10.61-6.022-21.783-6.022-33.207.001-51.97 42.281-94.25 94.251-94.25s94.25 42.28 94.25 94.25c0 18.937-5.613 36.586-15.264 51.373-6.902-6.715-16.238-10.623-26.153-10.623h-105.666c-13.728 0-26.346 7.491-32.931 19.552-1.456 2.665-1.16 5.945.749 8.308 20.869 25.827 51.855 40.64 85.015 40.64 33.988 0 64.399-15.599 84.452-40.017.401-.396.751-.831 1.049-1.297 14.861-18.663 23.749-42.28 23.749-67.937 0-60.239-49.009-109.249-109.25-109.249s-109.25 49.01-109.25 109.25c0 13.236 2.35 26.188 6.985 38.494 1.459 3.876 5.786 5.836 9.661 4.375zm92.604 51.381c-26.75 0-51.865-11.179-69.736-30.853 4.224-4.805 10.354-7.647 16.903-7.647h105.667c6.536 0 12.653 2.831 16.876 7.617-17.252 18.964-42.114 30.883-69.71 30.883z"/></g></svg>