<svg id="Capa_1" enable-background="new 0 0 512 512" height="512" viewBox="0 0 512 512" width="512" xmlns="http://www.w3.org/2000/svg"><g><path d="m143.167 202.5h-30l30 152.511c0 8.28 6.71 14.5 15 14.5 8.28 0 15-6.22 15-14.5v-15.5l30-53.25-30-53.761c0-16.5-13.5-30-30-30z" fill="#7d8fe5"/><path d="m37.5 202.5h30l-30 152.011c0 8.28-6.72 15-15 15s-15-6.72-15-15v-122.011c0-16.5 13.5-30 30-30z" fill="#acd2f6"/><path d="m143.167 232.5c0-16.5-13.5-30-30-30h-45.667c-16.5 0-30 13.5-30 30v253.084c0 10.447 8.469 18.916 18.917 18.916 10.447 0 18.917-8.469 18.917-18.916v-131.073h30v131.073c0 10.447 8.469 18.916 18.917 18.916 10.447 0 18.916-8.469 18.916-18.916z" fill="#95b0ed"/><path d="m474.5 202.5h-30l30 152.511c0 8.28 6.71 14.5 15 14.5 8.28 0 15-6.22 15-14.5v-122.511c0-16.5-13.5-30-30-30z" fill="#7d8fe5"/><path d="m368.833 202.5h30l-30 152.011c0 8.28-6.72 15-15 15s-15-6.72-15-15v-14.5l-30-54.005 30-53.505c0-16.501 13.5-30.001 30-30.001z" fill="#acd2f6"/><path d="m474.5 232.5c0-16.5-13.5-30-30-30h-45.667c-16.5 0-30 13.5-30 30v253.084c0 10.447 8.469 18.916 18.917 18.916 10.447 0 18.917-8.469 18.917-18.916v-131.073h30v131.073c0 10.447 8.469 18.916 18.917 18.916 10.447 0 18.916-8.469 18.916-18.916z" fill="#95b0ed"/><path d="m421.338 82.5v90c24.853 0 45-20.147 45-45s-20.148-45-45-45z" fill="#ff9c6c"/><path d="m436.338 127.5c0-24.853-6.716-45-15-45-24.853 0-45 20.147-45 45s20.147 45 45 45c8.284 0 15-20.147 15-45z" fill="#ffc190"/><path d="m90.662 82.5v90c24.853 0 45-20.147 45-45s-20.147-45-45-45z" fill="#ff9c6c"/><path d="m105.662 127.5c0-24.853-6.716-45-15-45-24.853 0-45 20.147-45 45s20.147 45 45 45c8.285 0 15-20.147 15-45z" fill="#ffc190"/><path d="m308.833 172.5h-30l30 167.511c0 8.28 6.71 14.5 15 14.5 8.28 0 15-6.22 15-14.5v-137.511c0-16.5-13.5-30-30-30z" fill="#ff0787"/><path d="m203.167 172.5h30l-30 167.011c0 8.28-6.72 15-15 15s-15-6.72-15-15v-137.011c0-16.5 13.5-30 30-30z" fill="#ff545a"/><path d="m308.833 202.5c0-16.5-13.5-30-30-30h-45.667c-16.5 0-30 13.5-30 30v283.084c0 10.447 8.469 18.916 18.917 18.916 10.447 0 18.917-8.469 18.917-18.916v-146.073h30v146.073c0 10.447 8.469 18.916 18.917 18.916 10.447 0 18.916-8.469 18.916-18.916z" fill="#ff336d"/><path d="m256.329 52.5v90c24.853 0 45-20.147 45-45s-20.147-45-45-45z" fill="#ff7647"/><path d="m271.329 97.5c0-24.853-6.716-45-15-45-24.853 0-45 20.147-45 45s20.147 45 45 45c8.284 0 15-20.147 15-45z" fill="#ff9c6c"/><path d="m474.5 195h-105.667c-8.436 0-16.228 2.801-22.5 7.52 0-20.698-16.822-37.52-37.5-37.52h-105.666c-20.678 0-37.5 16.822-37.5 37.5-6.272-4.699-14.064-7.5-22.5-7.5h-105.667c-20.678 0-37.5 16.822-37.5 37.5v122.011c0 12.406 10.094 22.5 22.5 22.5 2.629 0 5.153-.458 7.5-1.29v109.863c0 14.565 11.851 26.416 26.416 26.416 14.566 0 26.417-11.851 26.417-26.416 0-4.143-3.357-7.5-7.5-7.5s-7.5 3.357-7.5 7.5c0 6.295-5.122 11.416-11.417 11.416s-11.416-5.121-11.416-11.416v-253.084c0-4.143-3.357-7.5-7.5-7.5s-7.5 3.357-7.5 7.5v122.011c0 4.136-3.364 7.5-7.5 7.5s-7.5-3.364-7.5-7.5v-122.011c0-12.406 10.094-22.5 22.5-22.5h105.667c12.406 0 22.5 10.094 22.5 22.5v122.511c0 3.99-3.225 7-7.5 7s-7.5-3.01-7.5-7c-.001 0-.001-122.511-.001-122.511 0-4.143-3.357-7.5-7.5-7.5s-7.5 3.357-7.5 7.5v253.084c0 6.295-5.122 11.416-11.417 11.416s-11.416-5.121-11.416-11.416v-131.073c0-4.143-3.357-7.5-7.5-7.5h-30c-4.143 0-7.5 3.357-7.5 7.5v101.073c0 4.143 3.357 7.5 7.5 7.5s7.5-3.357 7.5-7.5v-93.573h15v123.573c0 14.565 11.851 26.416 26.416 26.416 14.566 0 26.417-11.851 26.417-26.416v-109.786c2.337.784 4.858 1.213 7.501 1.213 10.684 0 19.405-6.929 21.827-16.543 2.535.992 5.29 1.543 8.173 1.543 2.629 0 5.153-.458 7.5-1.29v124.863c0 14.565 11.851 26.416 26.416 26.416 14.566 0 26.417-11.851 26.417-26.416v-138.573h15v138.573c0 14.565 11.851 26.416 26.416 26.416 14.566 0 26.417-11.851 26.417-26.416v-124.786c2.337.784 4.857 1.213 7.5 1.213 2.954 0 5.755-.536 8.317-1.505 2.631 9.504 11.352 16.505 21.683 16.505 2.629 0 5.153-.458 7.5-1.29v109.863c0 14.565 11.851 26.416 26.417 26.416 14.565 0 26.416-11.851 26.416-26.416v-123.573h15v123.573c0 14.565 11.851 26.416 26.417 26.416 14.565 0 26.416-11.851 26.416-26.416v-109.786c2.337.784 4.858 1.213 7.501 1.213 12.617 0 22.5-9.663 22.5-22v-122.511c0-20.678-16.822-37.5-37.5-37.5zm-143.167 145.011c0 3.99-3.225 7-7.5 7s-7.5-3.01-7.5-7v-137.511c0-4.143-3.357-7.5-7.5-7.5s-7.5 3.357-7.5 7.5v283.084c0 6.295-5.122 11.416-11.417 11.416s-11.416-5.121-11.416-11.416v-146.073c0-4.143-3.357-7.5-7.5-7.5h-30c-4.143 0-7.5 3.357-7.5 7.5v146.073c0 6.295-5.122 11.416-11.417 11.416s-11.416-5.121-11.416-11.416v-283.084c0-4.143-3.357-7.5-7.5-7.5s-7.5 3.357-7.5 7.5v137.011c0 4.136-3.364 7.5-7.5 7.5s-7.5-3.364-7.5-7.5v-137.011c0-12.406 10.094-22.5 22.5-22.5h105.666c12.406 0 22.5 10.094 22.5 22.5zm165.667 15c0 3.99-3.225 7-7.5 7s-7.5-3.01-7.5-7c-.001 0-.001-122.511-.001-122.511 0-4.143-3.357-7.5-7.5-7.5s-7.5 3.357-7.5 7.5v253.084c0 6.295-5.121 11.416-11.416 11.416s-11.417-5.121-11.417-11.416v-131.073c0-4.143-3.357-7.5-7.5-7.5h-30c-4.143 0-7.5 3.357-7.5 7.5v131.073c0 6.295-5.121 11.416-11.416 11.416s-11.417-5.121-11.417-11.416v-253.084c0-4.143-3.357-7.5-7.5-7.5s-7.5 3.357-7.5 7.5v122.011c0 4.136-3.364 7.5-7.5 7.5s-7.5-3.364-7.5-7.5v-122.011c0-12.406 10.094-22.5 22.5-22.5h105.667c12.406 0 22.5 10.094 22.5 22.5z"/><path d="m421.338 180c28.948 0 52.5-23.552 52.5-52.5s-23.552-52.5-52.5-52.5-52.5 23.552-52.5 52.5 23.552 52.5 52.5 52.5zm0-90c20.678 0 37.5 16.822 37.5 37.5s-16.822 37.5-37.5 37.5-37.5-16.822-37.5-37.5 16.822-37.5 37.5-37.5z"/><path d="m90.662 180c28.948 0 52.5-23.552 52.5-52.5s-23.552-52.5-52.5-52.5-52.5 23.552-52.5 52.5 23.552 52.5 52.5 52.5zm0-90c20.678 0 37.5 16.822 37.5 37.5s-16.822 37.5-37.5 37.5-37.5-16.822-37.5-37.5 16.822-37.5 37.5-37.5z"/><path d="m256.329 150c28.948 0 52.5-23.552 52.5-52.5s-23.552-52.5-52.5-52.5-52.5 23.552-52.5 52.5 23.552 52.5 52.5 52.5zm0-90c20.678 0 37.5 16.822 37.5 37.5s-16.822 37.5-37.5 37.5-37.5-16.822-37.5-37.5 16.822-37.5 37.5-37.5z"/><path d="m256.329 30c4.143 0 7.5-3.357 7.5-7.5v-15c0-4.143-3.357-7.5-7.5-7.5s-7.5 3.357-7.5 7.5v15c0 4.143 3.358 7.5 7.5 7.5z"/><path d="m212.334 36.298c2.072 3.587 6.66 4.815 10.245 2.745 3.587-2.071 4.816-6.658 2.745-10.245l-7.5-12.99c-2.072-3.587-6.66-4.815-10.245-2.745-3.587 2.071-4.816 6.658-2.745 10.245z"/><path d="m290.079 39.042c3.589 2.071 8.175.843 10.245-2.745l7.5-12.99c2.071-3.587.842-8.174-2.745-10.245-3.589-2.071-8.175-.843-10.245 2.745l-7.5 12.99c-2.071 3.587-.842 8.174 2.745 10.245z"/></g></svg>