<svg id="Capa_1" enable-background="new 0 0 512 512" height="512" viewBox="0 0 512 512" width="512" xmlns="http://www.w3.org/2000/svg"><g><path d="m85 256c0-94.441 76.559-171 171-171v-30c-111.009 0-201 89.991-201 201s89.991 201 201 201v-30c-94.441 0-171-76.559-171-171z" fill="#7d8fe5"/><path d="m256 55v30c94.441 0 171 76.559 171 171s-76.559 171-171 171v30c111.009 0 201-89.991 201-201s-89.991-201-201-201z" fill="#666ddc"/><path d="m256 7.5c-45.563 0-82.5 36.937-82.5 82.5 0 22.407 8.946 42.715 23.445 57.582l118.468-.374c14.286-14.834 23.087-34.987 23.087-57.208 0-45.563-36.936-82.5-82.5-82.5z" fill="#c4f3ff"/><path d="m287.242 127.5h-30l30 38.865c10.699-4.388 20.274-10.958 28.17-19.157-4.223-11.47-15.281-19.708-28.17-19.708z" fill="#22aef4"/><path d="m257.242 127.5h-32c-13.028 0-24.179 8.419-28.298 20.082 14.984 15.365 35.899 24.918 59.056 24.918 11.06 0 21.607-2.183 31.242-6.135v-8.865c0-16.5-13.5-30-30-30z" fill="#14cfff"/><path d="m256 37.5-15 30 15 30c16.569 0 30-13.431 30-30s-13.431-30-30-30z" fill="#ff7647"/><path d="m226 67.5c0 16.569 13.431 30 30 30v-60c-16.569 0-30 13.431-30 30z" fill="#ff9c6c"/><path d="m90 173.5c-45.563 0-82.5 36.937-82.5 82.5 0 22.407 8.946 42.715 23.445 57.582l118.468-.374c14.286-14.834 23.087-34.987 23.087-57.208 0-45.563-36.936-82.5-82.5-82.5z" fill="#c4f3ff"/><path d="m121.242 293.5h-30l30 38.865c10.699-4.388 20.274-10.958 28.17-19.157-4.223-11.47-15.281-19.708-28.17-19.708z" fill="#22aef4"/><path d="m91.242 293.5h-32c-13.028 0-24.179 8.419-28.298 20.082 14.984 15.365 35.899 24.918 59.056 24.918 11.06 0 21.607-2.183 31.242-6.135v-8.865c0-16.5-13.5-30-30-30z" fill="#14cfff"/><path d="m90 203.5-15 30 15 30c16.569 0 30-13.431 30-30s-13.431-30-30-30z" fill="#ff7647"/><path d="m60 233.5c0 16.569 13.431 30 30 30v-60c-16.569 0-30 13.431-30 30z" fill="#ff9c6c"/><path d="m256 339.5c-45.563 0-82.5 36.937-82.5 82.5 0 22.407 8.946 42.715 23.445 57.582l118.468-.374c14.286-14.834 23.087-34.987 23.087-57.208 0-45.563-36.936-82.5-82.5-82.5z" fill="#c4f3ff"/><path d="m287.242 459.5h-30l30 38.865c10.699-4.388 20.274-10.958 28.17-19.157-4.223-11.47-15.281-19.708-28.17-19.708z" fill="#22aef4"/><path d="m257.242 459.5h-32c-13.028 0-24.179 8.419-28.298 20.082 14.984 15.365 35.899 24.918 59.056 24.918 11.06 0 21.607-2.183 31.242-6.135v-8.865c0-16.5-13.5-30-30-30z" fill="#14cfff"/><path d="m256 369.5-15 30 15 30c16.569 0 30-13.431 30-30s-13.431-30-30-30z" fill="#ff7647"/><path d="m226 399.5c0 16.569 13.431 30 30 30v-60c-16.569 0-30 13.431-30 30z" fill="#ff9c6c"/><path d="m422 173.5c-45.563 0-82.5 36.937-82.5 82.5 0 22.407 8.946 42.715 23.445 57.582l118.468-.374c14.286-14.834 23.087-34.987 23.087-57.208 0-45.563-36.936-82.5-82.5-82.5z" fill="#c4f3ff"/><path d="m453.242 293.5h-30l30 38.865c10.699-4.388 20.274-10.958 28.17-19.157-4.223-11.47-15.281-19.708-28.17-19.708z" fill="#22aef4"/><path d="m423.242 293.5h-32c-13.028 0-24.179 8.419-28.298 20.082 14.984 15.365 35.899 24.918 59.056 24.918 11.06 0 21.607-2.183 31.242-6.135v-8.865c0-16.5-13.5-30-30-30z" fill="#14cfff"/><path d="m422 203.5-15 30 15 30c16.569 0 30-13.431 30-30s-13.431-30-30-30z" fill="#ff7647"/><path d="m392 233.5c0 16.569 13.431 30 30 30v-60c-16.569 0-30 13.431-30 30z" fill="#ff9c6c"/><path d="m256 105c20.678 0 37.5-16.822 37.5-37.5s-16.822-37.5-37.5-37.5-37.5 16.822-37.5 37.5 16.822 37.5 37.5 37.5zm0-60c12.406 0 22.5 10.094 22.5 22.5s-10.094 22.5-22.5 22.5-22.5-10.094-22.5-22.5 10.094-22.5 22.5-22.5z"/><path d="m90 271c20.678 0 37.5-16.822 37.5-37.5s-16.822-37.5-37.5-37.5-37.5 16.822-37.5 37.5 16.822 37.5 37.5 37.5zm0-60c12.406 0 22.5 10.094 22.5 22.5s-10.094 22.5-22.5 22.5-22.5-10.094-22.5-22.5 10.094-22.5 22.5-22.5z"/><path d="m256 362c-20.678 0-37.5 16.822-37.5 37.5s16.822 37.5 37.5 37.5 37.5-16.822 37.5-37.5-16.822-37.5-37.5-37.5zm0 60c-12.406 0-22.5-10.094-22.5-22.5s10.094-22.5 22.5-22.5 22.5 10.094 22.5 22.5-10.094 22.5-22.5 22.5z"/><path d="m384.5 233.5c0 20.678 16.822 37.5 37.5 37.5s37.5-16.822 37.5-37.5-16.822-37.5-37.5-37.5-37.5 16.822-37.5 37.5zm60 0c0 12.406-10.094 22.5-22.5 22.5s-22.5-10.094-22.5-22.5 10.094-22.5 22.5-22.5 22.5 10.094 22.5 22.5z"/><path d="m512 256c0-41.472-28.199-76.476-66.428-86.862-20.89-45.557-57.154-81.82-102.71-102.709-10.385-38.229-45.39-66.429-86.862-66.429s-76.477 28.2-86.862 66.429c-45.556 20.889-81.82 57.153-102.709 102.709-38.229 10.385-66.429 45.39-66.429 86.862 0 49.626 40.374 90 90 90 3.869 0 7.682-.246 11.423-.722 15.71 27.171 38.128 49.588 65.298 65.298-.475 3.742-.721 7.555-.721 11.424 0 1.817.061 3.619.167 5.409-27.431-14.392-51.03-35.167-68.895-60.751-.821-3.252-3.765-5.658-7.272-5.658l-.528-.007c-2.807 0-5.351 1.524-6.654 3.967-1.312 2.454-1.155 5.432.403 7.736 21.525 31.812 51.178 56.95 85.921 72.888 10.389 38.223 45.39 66.416 86.858 66.416 41.472 0 76.476-28.199 86.862-66.428 45.556-20.89 81.821-57.154 102.711-102.71 38.228-10.386 66.427-45.39 66.427-86.862zm-139.97 55.868c4.035-6.639 11.276-10.868 19.212-10.868h62c7.799 0 14.973 4.119 19.046 10.592-13.312 12.054-30.956 19.408-50.288 19.408-19.18 0-36.694-7.245-49.97-19.132zm124.97-55.868c0 16.508-5.373 31.778-14.445 44.179-7.008-8.768-17.751-14.179-29.313-14.179h-62c-11.744 0-22.583 5.534-29.57 14.498-9.213-12.457-14.672-27.85-14.672-44.498 0-41.355 33.645-75 75-75s75 33.645 75 75zm-69.578-89.832c-1.794-.107-3.601-.168-5.422-.168-3.869 0-7.682.246-11.423.722-15.71-27.171-38.128-49.588-65.298-65.298.475-3.742.721-7.555.721-11.424 0-1.821-.061-3.627-.168-5.421 34.93 18.295 63.294 46.658 81.59 81.589zm-171.422-151.168c41.355 0 75 33.645 75 75 0 16.508-5.373 31.778-14.445 44.179-7.008-8.768-17.751-14.179-29.313-14.179h-62c-11.744 0-22.583 5.534-29.57 14.498-9.213-12.457-14.672-27.85-14.672-44.498 0-41.355 33.645-75 75-75zm50.289 130.592c-13.313 12.054-30.957 19.408-50.289 19.408-19.18 0-36.694-7.245-49.97-19.132 4.035-6.639 11.276-10.868 19.212-10.868h62c7.799 0 14.973 4.119 19.047 10.592zm-140.121-61.013c-.107 1.794-.168 3.6-.168 5.421 0 3.869.246 7.682.722 11.423-27.171 15.71-49.588 38.128-65.298 65.298-3.742-.475-7.555-.721-11.424-.721-1.821 0-3.627.061-5.421.168 18.295-34.931 46.658-63.294 81.589-81.589zm-76.168 96.421c41.355 0 75 33.645 75 75 0 16.508-5.373 31.778-14.445 44.179-7.008-8.768-17.751-14.179-29.313-14.179h-62c-11.744 0-22.583 5.534-29.57 14.498-9.213-12.457-14.672-27.85-14.672-44.498 0-41.355 33.645-75 75-75zm-49.97 130.868c4.035-6.639 11.276-10.868 19.212-10.868h62c7.799 0 14.973 4.119 19.046 10.592-13.312 12.054-30.956 19.408-50.288 19.408-19.18 0-36.694-7.245-49.97-19.132zm76.856 30.029c36.534-11.46 63.114-45.632 63.114-85.897s-26.58-74.437-63.114-85.897c13.39-21.672 31.545-39.827 53.217-53.217 11.46 36.534 45.632 63.114 85.897 63.114s74.438-26.58 85.897-63.114c21.672 13.39 39.827 31.545 53.217 53.217-36.534 11.46-63.114 45.632-63.114 85.897s26.58 74.437 63.114 85.897c-13.39 21.672-31.545 39.827-53.217 53.217-11.459-36.534-45.632-63.114-85.897-63.114s-74.438 26.58-85.897 63.114c-21.672-13.39-39.827-31.545-53.217-53.217zm89.144 135.971c4.035-6.639 11.276-10.868 19.212-10.868h62c7.799 0 14.973 4.119 19.046 10.592-13.312 12.054-30.956 19.408-50.288 19.408-19.18 0-36.694-7.245-49.97-19.132zm110.525-11.689c-7.008-8.768-17.751-14.179-29.313-14.179h-62c-11.744 0-22.583 5.534-29.57 14.498-9.213-12.457-14.672-27.85-14.672-44.498 0-41.355 33.645-75 75-75s75 33.645 75 75c0 16.508-5.373 31.778-14.445 44.179zm29.277-38.757c.107-1.794.168-3.601.168-5.422 0-3.869-.246-7.682-.722-11.423 27.171-15.71 49.588-38.128 65.298-65.298 3.742.475 7.555.721 11.424.721 1.821 0 3.628-.061 5.423-.168-18.297 34.93-46.661 63.294-81.591 81.59z"/></g></svg>