<svg id="Capa_1" enable-background="new 0 0 512 512" height="512" viewBox="0 0 512 512" width="512" xmlns="http://www.w3.org/2000/svg"><g><path d="m407 52.5-151 218.5 151 233.5h30v-452z" fill="#acd2f6"/><path d="m75 52.5v452h332v-452zm226 60h-15l-30-10-30 10h-15c-8.284 0-15-6.716-15-15s6.716-15 15-15h90c8.284 0 15 6.716 15 15s-6.716 15-15 15z" fill="#c4f3ff"/><path d="m165 172.5h182v211h-182z" fill="#fff"/><path d="m255.758 218.5-15 30 15 30c16.569 0 30-13.431 30-30s-13.432-30-30-30z" fill="#ff7647"/><path d="m225.758 248.5c0 16.569 13.431 30 30 30v-60c-16.569 0-30 13.431-30 30z" fill="#ff9c6c"/><path d="m287 308.5h-30l30 45h30v-15c0-16.5-13.5-30-30-30z" fill="#22aef4"/><path d="m257 308.5h-32c-16.5 0-30 13.5-30 30v15h92v-15c0-16.5-13.5-30-30-30z" fill="#14cfff"/><path d="m256 7.5-30 45 30 60h30v-105z" fill="#a6b0bd"/><path d="m226 7.5h30v105h-30z" fill="#c0c8d2"/><circle cx="256" cy="414.5" r="7.5"/><circle cx="286" cy="414.5" r="7.5"/><circle cx="226" cy="414.5" r="7.5"/><circle cx="256" cy="37.5" r="7.5"/><path d="m437 45h-143.5v-37.5c0-4.143-3.358-7.5-7.5-7.5h-60c-4.142 0-7.5 3.357-7.5 7.5v37.5h-143.5c-4.142 0-7.5 3.357-7.5 7.5v452c0 4.143 3.358 7.5 7.5 7.5h362c4.142 0 7.5-3.357 7.5-7.5v-452c0-4.143-3.358-7.5-7.5-7.5zm-143.5 45h7.5c4.136 0 7.5 3.364 7.5 7.5s-3.364 7.5-7.5 7.5h-7.5zm-15-75v90h-45v-90zm-60 90h-7.5c-4.136 0-7.5-3.364-7.5-7.5s3.364-7.5 7.5-7.5h7.5zm211 392h-347v-437h136v15h-7.5c-12.407 0-22.5 10.094-22.5 22.5s10.093 22.5 22.5 22.5h90c12.407 0 22.5-10.094 22.5-22.5s-10.093-22.5-22.5-22.5h-7.5v-15h136z"/><path d="m157.5 172.5v46c0 4.143 3.358 7.5 7.5 7.5s7.5-3.357 7.5-7.5v-38.5h167v196h-167v-127.5c0-4.143-3.358-7.5-7.5-7.5s-7.5 3.357-7.5 7.5v135c0 4.143 3.358 7.5 7.5 7.5h182c4.142 0 7.5-3.357 7.5-7.5v-211c0-4.143-3.358-7.5-7.5-7.5h-182c-4.142 0-7.5 3.357-7.5 7.5z"/><path d="m187.5 338.5v15c0 4.143 3.358 7.5 7.5 7.5h122c4.142 0 7.5-3.357 7.5-7.5v-15c0-20.678-16.822-37.5-37.5-37.5h-62c-20.678 0-37.5 16.822-37.5 37.5zm15 0c0-12.406 10.093-22.5 22.5-22.5h62c12.407 0 22.5 10.094 22.5 22.5v7.5h-107z"/><path d="m255.758 286c20.678 0 37.5-16.822 37.5-37.5s-16.822-37.5-37.5-37.5-37.5 16.822-37.5 37.5 16.822 37.5 37.5 37.5zm0-60c12.407 0 22.5 10.094 22.5 22.5s-10.093 22.5-22.5 22.5-22.5-10.094-22.5-22.5 10.093-22.5 22.5-22.5z"/></g></svg>