<svg id="Capa_1" enable-background="new 0 0 512 512" height="512" viewBox="0 0 512 512" width="512" xmlns="http://www.w3.org/2000/svg"><g><path d="m173.167 7.5v331.333c91.495 0 165.667-74.171 165.667-165.667-.001-91.495-74.172-165.666-165.667-165.666z" fill="#95b0ed"/><path d="m308.834 173.167c0-91.495-60.74-165.667-135.667-165.667-91.496 0-165.667 74.171-165.667 165.667 0 43.929 17.104 83.858 45.008 113.508-7.821 21.056-24.243 37.931-45.008 46.338 9.265 3.751 19.39 5.821 30 5.821 20.988 0 40.083-8.086 54.354-21.307 24.022 13.56 51.761 21.307 81.313 21.307 74.927-.001 135.667-74.172 135.667-165.667z" fill="#acd2f6"/><path d="m459.492 452.341c27.904-29.65 45.008-69.579 45.008-113.508 0-91.495-74.171-165.667-165.667-165.667 0 0 3.602 331.274 3.602 331.274 28.205-.604 54.67-8.242 77.711-21.248 14.27 13.221 33.366 21.307 54.354 21.307 10.61 0 20.735-2.07 30-5.821-20.765-8.406-37.188-25.28-45.008-46.337z" fill="#ffe7b5"/><path d="m474.5 338.833c0-91.495-60.74-165.667-135.667-165.667-91.495 0-165.666 74.171-165.666 165.667 0 91.495 74.171 165.667 165.667 165.667 1.206 0 2.403-.033 3.602-.059 73.261-2.332 132.064-75.583 132.064-165.608z" fill="#fff"/><path d="m395.431 302.81-27.424-4.13-29.174-58.347-29.173 58.347-64.506 9.715 46.476 45.776-10.694 64.351 57.897-30.056 24.614 12.777z" fill="#ffb44e"/><path d="m386.037 354.171 46.475-45.776-37.081-5.585-41.542 40.916 9.558 57.517 33.283 17.279z" fill="#ff9733"/><path d="m144.548 328.727c-17.257-3.15-33.746-9.116-49.008-17.731-2.841-1.602-6.391-1.186-8.784 1.029-13.439 12.451-30.932 19.309-49.256 19.309-3.374 0-6.716-.229-10.014-.684 14.516-10.125 25.801-24.531 32.053-41.363.992-2.672.384-5.676-1.569-7.751-27.71-29.445-42.97-67.932-42.97-108.369 0-87.214 70.954-158.167 158.167-158.167 76.433 0 141.863 54.483 155.579 129.549.744 4.074 4.652 6.771 8.726 6.03 4.075-.744 6.774-4.651 6.03-8.726-15.019-82.195-86.655-141.853-170.335-141.853-95.484 0-173.167 77.683-173.167 173.167 0 42.655 15.51 83.328 43.775 115.074-7.604 17.111-21.643 30.756-39.09 37.818-2.831 1.147-4.685 3.897-4.685 6.953s1.854 5.806 4.686 6.952c10.439 4.227 21.48 6.369 32.814 6.369 20.294 0 39.744-6.97 55.344-19.729 15.394 8.076 31.856 13.748 49.011 16.879 4.071.74 7.98-1.957 8.725-6.031s-1.957-7.981-6.032-8.725z"/><path d="m433.629 300.979-60.656-9.137-27.432-54.864c-1.27-2.54-3.867-4.146-6.708-4.146s-5.438 1.605-6.708 4.146l-27.432 54.864-60.656 9.137c-2.809.423-5.138 2.396-6.016 5.099-.878 2.701-.154 5.667 1.87 7.661l43.702 43.043-10.055 60.51c-.466 2.803.692 5.627 2.99 7.297 2.296 1.669 5.341 1.898 7.864.589l54.441-28.262 54.441 28.262c1.088.565 2.273.844 3.455.844 1.556 0 3.103-.483 4.409-1.433 2.298-1.67 3.456-4.494 2.99-7.297l-10.055-60.51 43.702-43.043c2.024-1.994 2.748-4.96 1.87-7.661-.878-2.702-3.207-4.676-6.016-5.099zm-52.855 47.848c-1.739 1.713-2.536 4.165-2.136 6.573l8.234 49.554-44.583-23.145c-2.166-1.125-4.745-1.125-6.911 0l-44.584 23.145 8.234-49.554c.4-2.408-.396-4.86-2.136-6.573l-35.789-35.249 49.673-7.482c2.414-.363 4.5-1.879 5.591-4.062l22.465-44.931 22.465 44.931c1.091 2.183 3.177 3.698 5.591 4.062l49.673 7.482z"/><path d="m507.314 491.727c-17.447-7.063-31.485-20.706-39.09-37.818 28.266-31.747 43.776-72.421 43.776-115.076 0-95.484-77.682-173.166-173.167-173.166s-173.167 77.682-173.167 173.166 77.683 173.167 173.167 173.167c28.005 0 55.66-6.808 80.321-19.729 15.601 12.76 35.051 19.729 55.346 19.729 11.334 0 22.375-2.143 32.814-6.369 2.832-1.146 4.686-3.896 4.686-6.952s-1.854-5.806-4.686-6.952zm-32.814 5.273c-18.324 0-35.817-6.857-49.256-19.309-1.421-1.316-3.252-1.998-5.099-1.998-1.262 0-2.532.318-3.685.969-23.572 13.305-50.414 20.338-77.627 20.338-87.213 0-158.167-70.953-158.167-158.167 0-87.213 70.954-158.166 158.167-158.166s158.167 70.953 158.167 158.166c0 40.438-15.26 78.925-42.97 108.369-1.953 2.075-2.561 5.079-1.569 7.751 6.252 16.832 17.537 31.238 32.053 41.363-3.298.455-6.64.684-10.014.684z"/></g></svg>