<svg id="Capa_1" enable-background="new 0 0 512 512" height="512" viewBox="0 0 512 512" width="512" xmlns="http://www.w3.org/2000/svg"><g><path d="m327.25 7.5-105 75h97.5l56.25-75z" fill="#3f6dde"/><path d="m278.5 7.5-56.25 75h48.75l56.25-75z" fill="#318de9"/><path d="m233.5 7.5h-97.5l56.25 75h97.5z" fill="#22aef4"/><path d="m196 82.5h30v105h-30z" fill="#ff9733"/><path d="m286 82.5h30v105h-30z" fill="#ff7647"/><path d="m331 67.5h-30v30h30c8.284 0 15-6.716 15-15s-6.716-15-15-15z" fill="#ff9733"/><path d="m316 82.5c0-8.284-6.716-15-15-15h-120c-8.284 0-15 6.716-15 15s6.716 15 15 15h120c8.284 0 15-6.716 15-15z" fill="#ffb44e"/><circle cx="256" cy="316" fill="#ffb44e" r="188.5"/><circle cx="256" cy="316" fill="#ffd06a" r="158.5"/><path d="m256 187.5v257c70.969 0 128.5-57.531 128.5-128.5s-57.531-128.5-128.5-128.5z" fill="#ff7647"/><path d="m354.5 316c0-70.969-44.1-128.5-98.5-128.5-70.969 0-128.5 57.531-128.5 128.5s57.531 128.5 128.5 128.5c54.4 0 98.5-57.531 98.5-128.5z" fill="#ff9733"/><path d="m312.597 279.977-27.424-4.131-29.173-58.346-29.173 58.346-64.506 9.716 46.476 45.775-10.694 64.351 57.897-30.056 24.614 12.778z" fill="#ffd06a"/><path d="m303.203 331.337 46.476-45.775-37.082-5.585-41.541 40.916 9.558 57.517 33.283 17.278z" fill="#ffb44e"/><path d="m157.058 290.905 43.702 43.043-10.056 60.511c-.466 2.803.692 5.627 2.99 7.297 1.306.949 2.854 1.433 4.409 1.433 1.181 0 2.366-.278 3.455-.844l54.442-28.262 54.44 28.262c2.523 1.311 5.568 1.081 7.864-.589 2.299-1.67 3.456-4.494 2.99-7.297l-10.055-60.511 43.701-43.043c2.024-1.994 2.748-4.96 1.87-7.661-.878-2.702-3.207-4.676-6.016-5.099l-60.656-9.136-27.432-54.864c-1.271-2.54-3.867-4.146-6.708-4.146s-5.438 1.605-6.708 4.146l-27.43 54.865-60.656 9.136c-2.81.423-5.138 2.396-6.016 5.099-.878 2.7-.154 5.666 1.87 7.66zm70.885-7.642c2.414-.363 4.5-1.879 5.591-4.062l22.466-44.93 22.465 44.931c1.092 2.183 3.178 3.698 5.591 4.062l49.673 7.481-35.788 35.249c-1.739 1.713-2.536 4.165-2.136 6.573l8.234 49.555-44.583-23.145c-2.167-1.125-4.744-1.125-6.912 0l-44.584 23.145 8.235-49.555c.4-2.408-.396-4.86-2.136-6.573l-35.789-35.249z"/><path d="m256 452c74.99 0 136-61.01 136-136s-61.01-136-136-136c-74.991 0-136 61.01-136 136s61.009 136 136 136zm0-257c66.72 0 121 54.28 121 121s-54.28 121-121 121-121-54.28-121-121 54.28-121 121-121z"/><path d="m323.5 131.98v-26.98h7.5c12.406 0 22.5-10.094 22.5-22.5 0-7.885-4.081-14.831-10.238-18.85l38.738-51.65c1.704-2.272 1.979-5.313.708-7.854-1.27-2.541-3.867-4.146-6.708-4.146h-97.5c-2.36 0-4.584 1.111-6 3l-16.5 22-16.5-22c-1.417-1.889-3.639-3-6-3h-97.5c-2.841 0-5.438 1.605-6.708 4.146-1.271 2.541-.997 5.582.708 7.854l38.737 51.65c-6.157 4.019-10.237 10.965-10.237 18.85 0 12.406 10.093 22.5 22.5 22.5h7.5v26.98c-74.919 27.568-128.5 99.653-128.5 184.02 0 108.075 87.925 196 196 196s196-87.925 196-196c0-84.367-53.581-156.452-128.5-184.02zm-15-4.829c-4.925-1.371-9.928-2.55-15-3.536v-18.615h15zm-30-22.151v16.299c-7.386-.848-14.891-1.299-22.5-1.299s-15.114.451-22.5 1.299v-16.299zm3.75-90h78.75l-33.75 45h-45l-16.875-22.5zm-52.5 0 33.75 45h-78.75l-33.75-45zm-56.25 67.5c0-4.136 3.364-7.5 7.5-7.5h150c4.136 0 7.5 3.364 7.5 7.5s-3.364 7.5-7.5 7.5h-150c-4.136 0-7.5-3.364-7.5-7.5zm30 22.5h15v18.614c-5.072.987-10.075 2.166-15 3.536zm52.5 392c-99.804 0-181-81.196-181-181s81.196-181 181-181 181 81.196 181 181-81.196 181-181 181z"/><path d="m256 150c-38.543 0-76.099 13.51-105.749 38.04-3.191 2.64-3.638 7.367-.998 10.56 2.641 3.189 7.368 3.638 10.56.997 26.967-22.31 61.126-34.597 96.187-34.597 83.262 0 151 67.738 151 151s-67.738 151-151 151-151-67.738-151-151c0-35.061 12.287-69.221 34.598-96.188 2.64-3.192 2.193-7.92-.998-10.56-3.19-2.642-7.918-2.194-10.56.997-24.53 29.652-38.04 67.208-38.04 105.751 0 91.532 74.467 166 166 166 91.532 0 166-74.468 166-166s-74.468-166-166-166z"/></g></svg>