<svg id="Capa_1" enable-background="new 0 0 512.007 512.007" height="512" viewBox="0 0 512.007 512.007" width="512" xmlns="http://www.w3.org/2000/svg"><g><path d="m376.171 444.504-105-75v120h105z" fill="#ff545a"/><path d="m136.171 444.504v45h210v-120z" fill="#ff7647"/><path d="m376.171 174.504h-240l210 270h30z" fill="#ff7647"/><path d="m136.171 174.504h210v270h-210z" fill="#ff9733"/><path d="m376.171 474.504h-30l30 30h30c0-16.569-13.432-30-30-30z" fill="#ff7647"/><path d="m346.171 474.504h-210c-16.569 0-30 13.431-30 30h270c0-16.569-13.432-30-30-30z" fill="#ff9733"/><path d="m213.309 11.879c-5.834-5.834-15.38-5.834-21.213 0l-16.093 16.093c-5.834 5.834-5.834 15.38 0 21.213s15.38 5.834 21.213 0l16.092-16.093c5.835-5.834 5.835-15.379.001-21.213z" fill="#666ddc"/><path d="m298.698 11.879c5.834-5.834 15.38-5.834 21.213 0l16.092 16.093c5.834 5.834 5.834 15.38 0 21.213s-15.38 5.834-21.213 0l-16.093-16.093c-5.833-5.834-5.833-15.379.001-21.213z" fill="#4e4cd3"/><path d="m256.171 264.504v67.5h67.5c0-37.28-30.221-67.5-67.5-67.5z" fill="#ffb44e"/><path d="m256.171 332.004v67.5c37.279 0 67.5-30.221 67.5-67.5z" fill="#ff7647"/><path d="m188.671 332.004c0 37.279 30.221 67.5 67.5 67.5v-67.5z" fill="#ffd06a"/><path d="m256.171 264.504c-37.279 0-67.5 30.221-67.5 67.5h67.5z" fill="#ffe7b5"/><path d="m256.171 399.504c12.426 0 22.5-30.221 22.5-67.5l-22.5-16.875-22.5 16.875c0 37.279 10.073 67.5 22.5 67.5z" fill="#ffb44e"/><path d="m256.171 264.504c-12.426 0-22.5 30.221-22.5 67.5h45c0-37.28-10.074-67.5-22.5-67.5z" fill="#ffd06a"/><path d="m391.004 142.504-60 26.785 60 50.215h30v-77z" fill="#ff545a"/><path d="m91.004 142.504h300v77h-300z" fill="#ff7647"/><path d="m421.004 127.504-60 15 60 15h30v-30z" fill="#ff7647"/><path d="m61.004 127.504h360v30h-360z" fill="#ff9733"/><path d="m256.171 407.007c41.355 0 75-33.645 75-75s-33.645-75-75-75-75 33.645-75 75 33.644 75 75 75zm-59.515-67.5h29.651c.646 17.991 3.628 35.953 9.171 48.82-20.662-7.615-35.999-26.299-38.822-48.82zm59.515-67.5c.644 0 4.763 2.545 8.795 14.642 3.414 10.244 5.514 23.481 6.058 37.858h-29.707c.544-14.377 2.644-27.614 6.058-37.858 4.033-12.097 8.152-14.642 8.796-14.642zm14.853 67.5c-.544 14.377-2.644 27.614-6.058 37.858-4.032 12.097-8.151 14.642-8.795 14.642s-4.763-2.545-8.795-14.642c-3.414-10.244-5.514-23.481-6.058-37.858zm5.839 48.821c5.543-12.867 8.525-30.829 9.171-48.82h29.651c-2.823 22.52-18.159 41.204-38.822 48.82zm38.822-63.821h-29.651c-.646-17.991-3.628-35.953-9.171-48.82 20.663 7.616 35.999 26.299 38.822 48.82zm-80.207-48.82c-5.543 12.867-8.525 30.829-9.171 48.82h-29.651c2.823-22.521 18.16-41.204 38.822-48.82z"/><path d="m451.004 120.007h-82.5v-33.392c0-10.017-3.9-19.434-10.983-26.516l-11.837-11.837c1.421-2.985 2.195-6.267 2.195-9.68 0-6.021-2.334-11.672-6.571-15.91l-16.093-16.093c-8.772-8.771-23.047-8.772-31.819 0-4.238 4.238-6.572 9.889-6.572 15.911 0 6.021 2.334 11.672 6.572 15.91l16.092 16.091c4.237 4.238 9.888 6.572 15.91 6.572 3.413 0 6.695-.774 9.679-2.195l11.836 11.838c4.25 4.249 6.591 9.899 6.591 15.909v33.393h-195v-33.393c0-6.01 2.341-11.66 6.591-15.91l11.836-11.837c2.985 1.421 6.267 2.195 9.68 2.195 6.022 0 11.673-2.334 15.909-6.571l16.093-16.092c4.237-4.238 6.571-9.889 6.571-15.91 0-6.022-2.334-11.673-6.571-15.911-8.774-8.771-23.047-8.771-31.82 0l-16.093 16.092c-4.237 4.238-6.571 9.889-6.571 15.91 0 3.413.774 6.696 2.195 9.68l-11.836 11.836c-7.083 7.083-10.983 16.5-10.983 26.517v33.393h-82.5c-4.143 0-7.5 3.357-7.5 7.5v30c0 4.143 3.357 7.5 7.5 7.5h22.5v54.5c0 4.143 3.357 7.5 7.5 7.5h37.667v240.753c-17.096 3.485-30 18.638-30 36.747 0 4.143 3.357 7.5 7.5 7.5h300c4.143 0 7.5-3.357 7.5-7.5 0-18.11-12.904-33.261-30-36.745v-240.755h37.333c4.143 0 7.5-3.357 7.5-7.5v-54.5h22.5c4.143 0 7.5-3.357 7.5-7.5v-30c-.001-4.142-3.359-7.5-7.501-7.5zm-130.91-76.123-16.092-16.092c-2.925-2.924-2.925-7.683 0-10.606s7.684-2.924 10.605 0l16.093 16.093c1.405 1.404 2.179 3.288 2.179 5.303s-.773 3.898-2.179 5.303c-1.404 1.405-3.288 2.179-5.303 2.179-2.015-.001-3.898-.774-5.303-2.18zm-138.787-10.605 16.093-16.093c1.462-1.462 3.382-2.193 5.303-2.193 1.92 0 3.841.731 5.303 2.193 2.925 2.924 2.925 7.683.001 10.606l-16.094 16.093c-1.404 1.404-3.287 2.178-5.303 2.178-2.015 0-3.898-.773-5.304-2.179-1.404-1.404-2.178-3.288-2.178-5.303s.774-3.898 2.179-5.302zm216.078 463.728h-282.43c3.096-8.73 11.437-15 21.215-15 4.143 0 7.5-3.357 7.5-7.5v-22.5h225v15h-202.5c-4.143 0-7.5 3.357-7.5 7.5s3.357 7.5 7.5 7.5h210c9.779 0 18.12 6.27 21.215 15zm-28.714-60h-225v-210h225zm44.833-225h-315v-47h315zm30-62h-375v-15h375z"/></g></svg>