<svg id="Capa_1" enable-background="new 0 0 512 512" height="512" viewBox="0 0 512 512" width="512" xmlns="http://www.w3.org/2000/svg"><g><path d="m281 37.5 20 30c0 16.569 13.431 30 30 30h15v-60z" fill="#22aef4"/><path d="m271 7.5h-15v60h45v-30c0-16.569-13.431-30-30-30z" fill="#14cfff"/><path d="m474.5 504.5h30v-317h-30l-60 113.5z" fill="#666ddc"/><path d="m7.5 187.5v317h89.667l158.666-203.5.167.214v-113.714z" fill="#95b0ed"/><path d="m256 187.5v113.714l158.167 203.286h60.333v-47l-10-30 10-30v-30l-10-30 10-30v-30l-10-30 10-30v-30z" fill="#7d8fe5"/><path d="m384.5 504.5h30v-167l-158.5-45z" fill="#666ddc"/><path d="m97.5 337.5v167h90l68.5-30 68.5 30h60v-182z" fill="#7d8fe5"/><path d="m274.5 362.5 20 142h30v-122z" fill="#14cfff"/><path d="m226 362.5 30 142h38.5v-142z" fill="#6ce1ff"/><path d="m187.5 382.5v122h68.5v-152z" fill="#c4f3ff"/><path d="m244.5 322.5 50 60h30v-60z" fill="#c4f3ff"/><path d="m187.5 322.5h107v60h-107z" fill="#fff"/><path d="m384.5 127.5-128.5 90 128.5 120h30v-210z" fill="#95b0ed"/><path d="m384.5 127.5h-287v210h287v-30l-20-30 20-30v-30l-20-30 20-30z" fill="#acd2f6"/><path d="m37.5 397.5h30v60h-30z" fill="#fff"/><path d="m37.5 307.5h30v60h-30z" fill="#ffe7b5"/><path d="m37.5 217.5h30v60h-30z" fill="#c4f3ff"/><path d="m444.5 397.5h30v60h-30z" fill="#ffe7b5"/><path d="m444.5 307.5h30v60h-30z" fill="#fff"/><path d="m444.5 217.5h30v60h-30z" fill="#ffe7b5"/><path d="m354.5 247.5-20 30 20 30h30v-60z" fill="#c4f3ff"/><path d="m127.5 247.5h227v60h-227z" fill="#fff"/><path d="m354.5 157.5-20 30 20 30h30v-60z" fill="#c4f3ff"/><path d="m127.5 157.5h227v60h-227z" fill="#fff"/><path d="m67.5 390h-30c-4.143 0-7.5 3.357-7.5 7.5v60c0 4.143 3.357 7.5 7.5 7.5h30c4.143 0 7.5-3.357 7.5-7.5v-60c0-4.143-3.357-7.5-7.5-7.5zm-7.5 60h-15v-45h15z"/><path d="m67.5 300h-30c-4.143 0-7.5 3.357-7.5 7.5v60c0 4.143 3.357 7.5 7.5 7.5h30c4.143 0 7.5-3.357 7.5-7.5v-60c0-4.143-3.357-7.5-7.5-7.5zm-7.5 60h-15v-45h15z"/><path d="m67.5 210h-30c-4.143 0-7.5 3.357-7.5 7.5v60c0 4.143 3.357 7.5 7.5 7.5h30c4.143 0 7.5-3.357 7.5-7.5v-60c0-4.143-3.357-7.5-7.5-7.5zm-7.5 60h-15v-45h15z"/><path d="m444.5 465h30c4.143 0 7.5-3.357 7.5-7.5v-60c0-4.143-3.357-7.5-7.5-7.5h-30c-4.143 0-7.5 3.357-7.5 7.5v60c0 4.143 3.357 7.5 7.5 7.5zm7.5-60h15v45h-15z"/><path d="m444.5 375h30c4.143 0 7.5-3.357 7.5-7.5v-60c0-4.143-3.357-7.5-7.5-7.5h-30c-4.143 0-7.5 3.357-7.5 7.5v60c0 4.143 3.357 7.5 7.5 7.5zm7.5-60h15v45h-15z"/><path d="m444.5 285h30c4.143 0 7.5-3.357 7.5-7.5v-60c0-4.143-3.357-7.5-7.5-7.5h-30c-4.143 0-7.5 3.357-7.5 7.5v60c0 4.143 3.357 7.5 7.5 7.5zm7.5-60h15v45h-15z"/><path d="m127.5 315h257c4.143 0 7.5-3.357 7.5-7.5v-60c0-4.143-3.357-7.5-7.5-7.5h-257c-4.143 0-7.5 3.357-7.5 7.5v60c0 4.143 3.357 7.5 7.5 7.5zm7.5-60h242v45h-242z"/><path d="m127.5 225h257c4.143 0 7.5-3.357 7.5-7.5v-60c0-4.143-3.357-7.5-7.5-7.5h-257c-4.143 0-7.5 3.357-7.5 7.5v60c0 4.143 3.357 7.5 7.5 7.5zm7.5-60h242v45h-242z"/><path d="m504.5 180h-82.5v-52.5c0-4.143-3.357-7.5-7.5-7.5h-151v-45h30.755c3.484 17.096 18.635 30 36.745 30h15c4.143 0 7.5-3.357 7.5-7.5v-60c0-4.143-3.357-7.5-7.5-7.5h-38.253c-3.485-17.096-18.638-30-36.747-30h-15c-4.143 0-7.5 3.357-7.5 7.5v112.5h-151c-4.143 0-7.5 3.357-7.5 7.5v52.5h-82.5c-4.143 0-7.5 3.357-7.5 7.5v317c0 4.143 3.357 7.5 7.5 7.5h497c4.143 0 7.5-3.357 7.5-7.5v-317c0-4.143-3.357-7.5-7.5-7.5zm-196-135h30v45h-7.5c-12.406 0-22.5-10.094-22.5-22.5zm-37.5-30c12.406 0 22.5 10.094 22.5 22.5v22.5h-30v-45zm-83.5 390c-4.143 0-7.5 3.357-7.5 7.5v84.5h-75v-152h75v37.5c0 4.143 3.357 7.5 7.5 7.5h61v107h-53.5v-84.5c0-4.143-3.357-7.5-7.5-7.5zm129.5-30h-122v-30h122zm-53.5 15h53.5v107h-53.5zm68.5-45h75v152h-75zm75-210v195h-302v-195zm-392 60h75v302h-75zm482 302h-75v-302h75z"/></g></svg>