<svg id="Capa_1" enable-background="new 0 0 512 512" height="512" viewBox="0 0 512 512" width="512" xmlns="http://www.w3.org/2000/svg"><g><path d="m458.5 37.5c0-16.569-13.431-30-30-30h-30v497h30c16.569 0 30-13.431 30-30v-30l-15-188.5 15-188.5z" fill="#666ddc"/><path d="m428.5 97.5-30 158.5 30 158.5c0 16.569 13.431 30 30 30v-377c-16.569 0-30 13.431-30 30z" fill="#4e4cd3"/><path d="m398.5 7.5h-315c-16.569 0-30 13.431-30 30v60l15 158.5-15 158.5v60c0 16.569 13.431 30 30 30h315c16.569 0 30-13.431 30-30v-437c0-16.569-13.431-30-30-30z" fill="#7d8fe5"/><path d="m53.5 67.5v377c16.569 0 30-13.431 30-30v-317c0-16.569-13.431-30-30-30z" fill="#666ddc"/><path d="m398.5 37.5h-30l-45 68.5 45 68.5h30z" fill="#05ff77"/><path d="m113.5 37.5h255v137h-255z" fill="#82ffbb"/><path d="m158.5 279.5-15 22.5 15 22.5h30v-45z" fill="#4e4cd3"/><path d="m113.5 279.5h45v45h-45z" fill="#666ddc"/><path d="m368.5 204.5-15 15 15 15h30v-30z" fill="#22aef4"/><path d="m323.5 204.5h45v30h-45z" fill="#14cfff"/><path d="m263.5 204.5-15 15 15 15h30v-30z" fill="#22aef4"/><path d="m218.5 204.5h45v30h-45z" fill="#14cfff"/><path d="m368.5 279.5-15 22.5 15 22.5h30v-45z" fill="#4e4cd3"/><path d="m323.5 279.5h45v45h-45z" fill="#666ddc"/><path d="m263.5 279.5-15 22.5 15 22.5h30v-45z" fill="#4e4cd3"/><path d="m218.5 279.5h45v45h-45z" fill="#666ddc"/><path d="m158.5 354.5-15 22.5 15 22.5h30v-45z" fill="#acd2f6"/><path d="m113.5 354.5h45v45h-45z" fill="#c4f3ff"/><path d="m263.5 354.5-15 22.5 15 22.5h30v-45z" fill="#acd2f6"/><path d="m218.5 354.5h45v45h-45z" fill="#c4f3ff"/><path d="m158.5 429.5-15 22.5 15 22.5h30v-45z" fill="#acd2f6"/><path d="m113.5 429.5h45v45h-45z" fill="#c4f3ff"/><path d="m263.5 429.5-15 22.5 15 22.5h30v-45z" fill="#acd2f6"/><path d="m218.5 429.5h45v45h-45z" fill="#c4f3ff"/><path d="m368.5 354.5-15 60 15 60h30v-120z" fill="#ff336d"/><path d="m323.5 354.5h45v120h-45z" fill="#ff545a"/><path d="m428.5 0h-345c-20.678 0-37.5 16.822-37.5 37.5v437c0 20.678 16.822 37.5 37.5 37.5h345c20.678 0 37.5-16.822 37.5-37.5v-437c0-20.678-16.822-37.5-37.5-37.5zm0 497h-345c-12.407 0-22.5-10.094-22.5-22.5v-23.255c17.096-3.484 30-18.635 30-36.745 0-4.143-3.358-7.5-7.5-7.5s-7.5 3.357-7.5 7.5c0 9.777-6.271 18.114-15 21.21v-359.42c8.729 3.096 15 11.433 15 21.21v287c0 4.143 3.358 7.5 7.5 7.5s7.5-3.357 7.5-7.5v-287c0-18.11-12.904-33.261-30-36.745v-23.255c0-12.406 10.093-22.5 22.5-22.5h345c12.406 0 22.5 10.094 22.5 22.5v23.255c-17.096 3.484-30 18.635-30 36.745v317c0 18.11 12.904 33.261 30 36.745v23.255c0 12.406-10.094 22.5-22.5 22.5zm22.5-420.71v359.42c-8.729-3.096-15-11.433-15-21.21v-317c0-9.777 6.271-18.114 15-21.21z"/><path d="m398.5 30h-285c-4.142 0-7.5 3.357-7.5 7.5v137c0 4.143 3.358 7.5 7.5 7.5h285c4.143 0 7.5-3.357 7.5-7.5v-137c0-4.143-3.357-7.5-7.5-7.5zm-7.5 137h-270v-122h270z"/><path d="m323.5 98.5c4.143 0 7.5-3.357 7.5-7.5v-16h30v16c0 4.143 3.357 7.5 7.5 7.5s7.5-3.357 7.5-7.5v-23.5c0-4.143-3.357-7.5-7.5-7.5h-45c-4.143 0-7.5 3.357-7.5 7.5v23.5c0 4.143 3.357 7.5 7.5 7.5z"/><path d="m323.5 152h45c4.143 0 7.5-3.357 7.5-7.5v-23.5c0-4.143-3.357-7.5-7.5-7.5s-7.5 3.357-7.5 7.5v16h-30v-16c0-4.143-3.357-7.5-7.5-7.5s-7.5 3.357-7.5 7.5v23.5c0 4.143 3.357 7.5 7.5 7.5z"/><path d="m188.5 422h-75c-4.142 0-7.5 3.357-7.5 7.5v45c0 4.143 3.358 7.5 7.5 7.5h75c4.142 0 7.5-3.357 7.5-7.5v-45c0-4.143-3.358-7.5-7.5-7.5zm-7.5 45h-60v-30h60z"/><path d="m188.5 347h-75c-4.142 0-7.5 3.357-7.5 7.5v45c0 4.143 3.358 7.5 7.5 7.5h75c4.142 0 7.5-3.357 7.5-7.5v-45c0-4.143-3.358-7.5-7.5-7.5zm-7.5 45h-60v-30h60z"/><path d="m293.5 422h-75c-4.142 0-7.5 3.357-7.5 7.5v45c0 4.143 3.358 7.5 7.5 7.5h75c4.143 0 7.5-3.357 7.5-7.5v-45c0-4.143-3.357-7.5-7.5-7.5zm-7.5 45h-60v-30h60z"/><path d="m293.5 347h-75c-4.142 0-7.5 3.357-7.5 7.5v45c0 4.143 3.358 7.5 7.5 7.5h75c4.143 0 7.5-3.357 7.5-7.5v-45c0-4.143-3.357-7.5-7.5-7.5zm-7.5 45h-60v-30h60z"/><path d="m293.5 197h-75c-4.142 0-7.5 3.357-7.5 7.5v30c0 4.143 3.358 7.5 7.5 7.5h75c4.143 0 7.5-3.357 7.5-7.5v-30c0-4.143-3.357-7.5-7.5-7.5zm-7.5 30h-60v-15h60z"/><path d="m398.5 347h-75c-4.143 0-7.5 3.357-7.5 7.5v120c0 4.143 3.357 7.5 7.5 7.5h75c4.143 0 7.5-3.357 7.5-7.5v-120c0-4.143-3.357-7.5-7.5-7.5zm-7.5 120h-60v-105h60z"/><path d="m398.5 272h-75c-4.143 0-7.5 3.357-7.5 7.5v45c0 4.143 3.357 7.5 7.5 7.5h75c4.143 0 7.5-3.357 7.5-7.5v-45c0-4.143-3.357-7.5-7.5-7.5zm-7.5 45h-60v-30h60z"/><path d="m188.5 272h-75c-4.142 0-7.5 3.357-7.5 7.5v45c0 4.143 3.358 7.5 7.5 7.5h75c4.142 0 7.5-3.357 7.5-7.5v-45c0-4.143-3.358-7.5-7.5-7.5zm-7.5 45h-60v-30h60z"/><path d="m293.5 272h-75c-4.142 0-7.5 3.357-7.5 7.5v45c0 4.143 3.358 7.5 7.5 7.5h75c4.143 0 7.5-3.357 7.5-7.5v-45c0-4.143-3.357-7.5-7.5-7.5zm-7.5 45h-60v-30h60z"/><path d="m398.5 197h-75c-4.143 0-7.5 3.357-7.5 7.5v30c0 4.143 3.357 7.5 7.5 7.5h75c4.143 0 7.5-3.357 7.5-7.5v-30c0-4.143-3.357-7.5-7.5-7.5zm-7.5 30h-60v-15h60z"/></g></svg>