<svg id="Capa_1" enable-background="new 0 0 512 512" height="512" viewBox="0 0 512 512" width="512" xmlns="http://www.w3.org/2000/svg"><g><path d="m495.713 58.713-21.213-21.213-42.426 42.426 42.426 42.426 21.213-21.213c11.716-11.715 11.716-30.71 0-42.426z" fill="#4e4cd3"/><path d="m474.5 37.5-21.213-21.213c-11.716-11.716-30.711-11.716-42.426 0l-21.214 21.213 63.64 63.64 21.213-21.214c11.716-11.715 11.716-30.71 0-42.426z" fill="#3f6dde"/><path d="m61.82 418.36-47.73 47.73c-8.787 8.787-8.787 23.033 0 31.82s23.033 8.787 31.82 0l47.73-47.73z" fill="#05ff77"/><path d="m56.369 296.556c18.213 44.04 9.429 96.614-26.369 132.411l31.82 31.82 132.411-26.369z" fill="#3f6dde"/><path d="m194.231 434.418c-44.04-18.213-96.614-9.429-132.411 26.369l21.213 21.213c35.797-35.798 88.371-44.582 132.411-26.369z" fill="#4e4cd3"/><path d="m236.669 349.577-42.426 84.853 21.201 21.201c.012.012 21.225-21.201 21.225-21.201z" fill="#3f6dde"/><path d="m77.57 275.331-21.213 21.213c.012.012 137.886 137.886 137.886 137.886l63.64-63.64z" fill="#318de9"/><path d="m496.916 142.285c10.494-11.78 10.096-29.847-1.203-41.145l-21.213-21.214-259.044 333.29 21.213 21.213z" fill="#14d7b6"/><path d="m474.5 79.926-63.64-63.64c-11.299-11.299-29.365-11.697-41.145-1.203l-292.145 260.248 137.886 137.886 260.247-292.145c10.494-11.781 10.096-29.847-1.203-41.146z" fill="#05ff77"/><path d="m505.436 101.132c10.021-14.598 8.551-34.768-4.411-47.73l-42.427-42.427c-12.962-12.962-33.132-14.432-47.73-4.411-13.958-9.584-33.074-8.723-46.135 2.911l-292.143 260.248c-.108.096-.213.195-.315.297l-21.208 21.208c-2.144 2.144-2.786 5.369-1.627 8.17 17.694 42.764 7.984 91.539-24.736 124.258-2.929 2.929-2.929 7.677 0 10.607l5.303 5.303-21.234 21.235c-11.697 11.697-11.697 30.729 0 42.427s30.729 11.697 42.426 0l21.235-21.235 5.303 5.303c2.929 2.929 7.677 2.929 10.607 0 32.72-32.72 81.494-42.429 124.258-24.736 2.801 1.159 6.026.517 8.17-1.627l21.208-21.208c.102-.102.201-.206.297-.315l260.246-292.145c11.636-13.06 12.497-32.175 2.913-46.133zm-464.843 391.489c-5.849 5.849-15.364 5.849-21.213 0s-5.849-15.364 0-21.213l21.235-21.235 21.213 21.213zm42.6-21.084-42.73-42.73c26.202-29.391 37.24-68.567 30.974-106.593l118.35 118.35c-38.027-6.267-77.203 4.771-106.594 30.973zm132.271-26.508-148.492-148.493 10.607-10.607 148.492 148.492zm211.315-402.234 63.64 63.64c8.42 8.42 8.818 21.972.905 30.854l-254.962 286.211-147.862-147.862 286.211-254.962c8.882-7.911 22.435-7.514 30.854.906 2.929 2.929 7.677 2.929 10.607 0 8.772-8.772 23.047-8.772 31.82 0l42.426 42.426c6.914 6.915 8.379 17.246 4.395 25.608l-57.427-57.428c-2.929-2.929-7.677-2.929-10.607 0-2.93 2.93-2.93 7.678 0 10.607z"/></g></svg>