<svg id="Capa_1" enable-background="new 0 0 512 512" height="512" viewBox="0 0 512 512" width="512" xmlns="http://www.w3.org/2000/svg"><g><path d="m314.581 22.5h-58.581v188.5h76.42z" fill="#ff0787"/><path d="m197.42 22.5-17.839 188.5h122.839l-17.839-188.5z" fill="#ff336d"/><path d="m271 256h-30v60l15 30 15-30z" fill="#acd2f6"/><path d="m241 316v152.287c0 13.583 5.396 26.609 15 36.213 9.604-9.604 15-22.631 15-36.213v-152.287z" fill="#c4f3ff"/><path d="m331 7.5h-30l30 30h30c0-16.569-13.431-30-30-30z" fill="#ff336d"/><path d="m301 7.5h-120c-16.568 0-30 13.431-30 30h180c0-16.569-13.431-30-30-30z" fill="#ff545a"/><path d="m331 196h-30l90 90h30c0-49.706-40.294-90-90-90z" fill="#ff336d"/><path d="m301 196h-120c-49.706 0-90 40.294-90 90h300c0-49.706-40.294-90-90-90z" fill="#ff545a"/><path d="m337.847 188.744-13.604-143.744h36.757c4.143 0 7.5-3.357 7.5-7.5 0-20.678-16.822-37.5-37.5-37.5h-150c-20.678 0-37.5 16.822-37.5 37.5 0 4.143 3.357 7.5 7.5 7.5h36.757l-13.604 143.744c-50.579 3.526-90.653 45.797-90.653 97.256 0 4.143 3.357 7.5 7.5 7.5h172.5v174.787c0 8.867-2.622 17.331-7.5 24.506-4.878-7.175-7.5-15.639-7.5-24.506v-152.287c0-4.143-3.357-7.5-7.5-7.5s-7.5 3.357-7.5 7.5v152.287c0 15.683 6.107 30.427 17.196 41.517 1.408 1.406 3.315 2.196 5.304 2.196s3.896-.79 5.304-2.196c11.089-11.09 17.196-25.834 17.196-41.517v-174.787h142.5c4.143 0 7.5-3.357 7.5-7.5 0-51.459-40.074-93.73-90.653-97.256zm-178.062-158.744c3.096-8.73 11.437-15 21.215-15h150c9.778 0 18.119 6.27 21.215 15h-126.215c-4.143 0-7.5 3.357-7.5 7.5s3.357 7.5 7.5 7.5h83.176l13.581 143.5h-133.514l14.223-150.293c.199-2.104-.498-4.192-1.919-5.754s-3.435-2.453-5.547-2.453zm-60.947 248.5c3.8-41.989 39.194-74.996 82.154-75h150.008c42.964 0 78.362 33.009 82.162 75z"/></g></svg>