<svg id="Capa_1" enable-background="new 0 0 512 512" height="512" viewBox="0 0 512 512" width="512" xmlns="http://www.w3.org/2000/svg"><g><path d="m327.773 37.5 3.513-17.904c1.354-6.893 7.424-12.096 14.714-12.096s13.36 5.203 14.713 12.096l3.513 17.904-18.226 20z" fill="#4e4cd3"/><path d="m316 97.5 11.773-60h36.454l11.773 60-30 30z" fill="#ffe7b5"/><path d="m346 97.5h30v158.5h-30-20z" fill="#ffb44e"/><path d="m316 97.5h30v158.5h-30z" fill="#ffd06a"/><path d="m237.773 37.5 3.513-17.904c1.354-6.893 7.424-12.096 14.714-12.096s13.36 5.203 14.713 12.096l3.513 17.904-18.226 20z" fill="#4e4cd3"/><path d="m226 97.5 11.773-60h36.454l11.773 60-30 30z" fill="#ffe7b5"/><path d="m256 97.5h30v158.5h-30-20z" fill="#ffb44e"/><path d="m226 97.5h30v158.5h-30z" fill="#ffd06a"/><path d="m136 37.5v30l30 30 30-30v-30c0-16.569-13.431-30-30-30s-30 13.431-30 30z" fill="#ff336d"/><path d="m136 97.5 30 30 30-30v-30h-60z" fill="#fff"/><path d="m166 256h30v-158.5h-30l-20 158.5z" fill="#ffb44e"/><path d="m136 97.5h30v158.5h-30z" fill="#ffd06a"/><path d="m376 196-43.577 308.5h30c16.002 0 29.187-12.56 29.965-28.543l13.612-279.957z" fill="#4e4cd3"/><path d="m362.388 475.957 13.612-279.957h-270l13.612 279.957c.777 15.983 13.962 28.543 29.965 28.543h182.846c16.002 0 29.188-12.56 29.965-28.543z" fill="#666ddc"/><path d="m411.431 190.827c-1.416-1.486-3.378-2.327-5.431-2.327h-22.5v-91c0-.484-.047-.969-.14-1.444l-15.287-77.903c-2.065-10.519-11.347-18.153-22.073-18.153s-20.008 7.634-22.073 18.152l-15.287 77.904c-.093.476-.14.96-.14 1.444v91h-15v-91c0-.484-.047-.969-.14-1.444l-15.287-77.904c-2.064-10.518-11.347-18.152-22.073-18.152s-20.009 7.634-22.073 18.151l-15.287 77.905c-.093.476-.14.96-.14 1.444v68.5c0 4.143 3.358 7.5 7.5 7.5s7.5-3.357 7.5-7.5v-61h15v83.5h-45v-151c0-20.678-16.822-37.5-37.5-37.5s-37.5 16.822-37.5 37.5v151h-22.5c-2.052 0-4.015.841-5.431 2.327s-2.16 3.487-2.061 5.537l13.612 279.957c.974 20.007 17.426 35.679 37.457 35.679h212.847c20.031 0 36.483-15.672 37.456-35.679l13.612-279.957c.099-2.05-.646-4.051-2.061-5.537zm-57.931-2.327v-83.5h15v83.5zm13.385-98.5h-41.771l8.83-45h24.11zm-20.885-75c3.574 0 6.667 2.541 7.354 6.041l1.758 8.959h-18.223l1.758-8.959c.686-3.5 3.779-6.041 7.353-6.041zm-22.5 90h15v83.5h-15zm-46.615-15h-41.771l8.83-45h24.111zm-20.885-75c3.574 0 6.667 2.54 7.354 6.04l1.758 8.96h-18.224l1.758-8.96c.687-3.5 3.78-6.04 7.354-6.04zm7.5 90h15v83.5h-15zm-90 83.5v-83.5h15v83.5zm15-98.5h-45v-15h45zm-22.5-75c12.407 0 22.5 10.094 22.5 22.5v22.5h-45v-22.5c0-12.406 10.093-22.5 22.5-22.5zm-22.5 90h15v83.5h-15zm241.396 370.593c-.583 12.004-10.454 21.407-22.473 21.407h-212.846c-12.019 0-21.89-9.403-22.473-21.407l-13.23-272.093h284.253z"/></g></svg>