<svg id="Capa_1" enable-background="new 0 0 512 512" height="512" viewBox="0 0 512 512" width="512" xmlns="http://www.w3.org/2000/svg"><g><path d="m256 37.5h218.5v169.5h-218.5z" fill="#95b0ed"/><path d="m37.5 37.5h407v169.5h-407z" fill="#acd2f6"/><path d="m474.5 97.5-120 180 150-60v-120z" fill="#ff9733"/><path d="m7.5 97.5v120l248.5 105 218.5-195v-30z" fill="#ffb44e"/><path d="m474.5 7.5v30c0 16.57-13.43 30-30 30h-30l30-60z" fill="#acd2f6"/><path d="m444.5 7.5v30c0 16.569-13.431 30-30 30h-347c-16.569 0-30-13.431-30-30v-30z" fill="#c4f3ff"/><path d="m256 157.5h218.5v169.5h-218.5z" fill="#acd2f6"/><path d="m37.5 157.5h407v169.5h-407z" fill="#c4f3ff"/><path d="m474.5 217.5-120 180 150-60v-120z" fill="#ff7647"/><path d="m7.5 217.5v120l248.5 105 218.5-195v-30z" fill="#ff9733"/><path d="m474.5 127.5v30c0 16.57-13.43 30-30 30h-30l30-60z" fill="#c4f3ff"/><path d="m444.5 127.5v30c0 16.569-13.431 30-30 30h-347c-16.569 0-30-13.431-30-30v-30z" fill="#fff"/><path d="m256 277.5h218.5v203.5h-218.5z" fill="#acd2f6"/><path d="m37.5 277.5h407v203.5h-407z" fill="#c4f3ff"/><path d="m474.5 337.5-105 83.5 105 83.5h30v-167z" fill="#ff9733"/><path d="m7.5 337.5h467v167h-467z" fill="#ffb44e"/><path d="m474.5 247.5v30c0 16.57-13.43 30-30 30h-30l30-60z" fill="#c4f3ff"/><path d="m444.5 247.5v30c0 16.569-13.431 30-30 30h-347c-16.569 0-30-13.431-30-30v-30z" fill="#fff"/><path d="m504.5 90h-22.5v-82.5c0-4.143-3.358-7.5-7.5-7.5h-437c-4.142 0-7.5 3.357-7.5 7.5v82.5h-22.5c-4.142 0-7.5 3.357-7.5 7.5v90c0 4.143 3.358 7.5 7.5 7.5s7.5-3.357 7.5-7.5v-82.5h482v105h-15v-82.5c0-4.143-3.358-7.5-7.5-7.5h-437c-4.142 0-7.5 3.357-7.5 7.5v82.5h-22.5c-4.142 0-7.5 3.357-7.5 7.5v287c0 4.143 3.358 7.5 7.5 7.5h497c4.142 0 7.5-3.357 7.5-7.5v-407c0-4.143-3.358-7.5-7.5-7.5zm-459.5-75h422v22.5c0 12.406-10.093 22.5-22.5 22.5h-377c-12.407 0-22.5-10.094-22.5-22.5zm0 52.479c6.272 4.72 14.064 7.521 22.5 7.521h377c8.436 0 16.228-2.801 22.5-7.521v22.521h-422zm0 67.521h422v22.5c0 12.406-10.093 22.5-22.5 22.5h-377c-12.407 0-22.5-10.094-22.5-22.5zm0 52.479c6.272 4.72 14.064 7.521 22.5 7.521h377c8.436 0 16.228-2.801 22.5-7.521v22.521h-422zm452 37.521v105h-15v-82.5c0-4.143-3.358-7.5-7.5-7.5h-437c-4.142 0-7.5 3.357-7.5 7.5v82.5h-15v-105zm-30 52.5c0 12.406-10.093 22.5-22.5 22.5h-377c-12.407 0-22.5-10.094-22.5-22.5v-22.5h422zm-422 29.979c6.272 4.72 14.064 7.521 22.5 7.521h377c8.436 0 16.228-2.801 22.5-7.521v22.521h-422zm-30 189.521v-152h482v152z"/></g></svg>