<svg id="Capa_1" enable-background="new 0 0 512 512" height="512" viewBox="0 0 512 512" width="512" xmlns="http://www.w3.org/2000/svg"><g><path d="m233.5 429.5h45v60h-45z" fill="#ff7647"/><path d="m444.5 7.5-158.5 392h188.5v-392z" fill="#ff545a"/><path d="m37.5 7.5v392h407v-45l-90-143.5 90-173.5v-30z" fill="#ff7647"/><path d="m67.5 37.5v362h377v-362z" fill="#fff"/><path d="m474.5 384.5-75 30 75 30h30v-60z" fill="#ff9c6c"/><path d="m7.5 384.5h467v60h-467z" fill="#ffc190"/><path d="m384.5 67.5-75 143.5 75 143.5h30v-287z" fill="#95b0ed"/><path d="m271 67.5h113.5v287h-113.5z" fill="#acd2f6"/><path d="m211 67.5-75 64.25 75 64.25h30v-128.5z" fill="#95b0ed"/><path d="m97.5 67.5h113.5v128.5h-113.5z" fill="#acd2f6"/><path d="m211 226-75 64.25 75 64.25h30v-128.5z" fill="#95b0ed"/><path d="m97.5 226h113.5v128.5h-113.5z" fill="#acd2f6"/><path d="m293.5 474.5h-30v30h30c8.284 0 15-6.716 15-15s-6.716-15-15-15z" fill="#ff9c6c"/><path d="m278.5 489.5c0-8.284-6.716-15-15-15h-45c-8.284 0-15 6.716-15 15s6.716 15 15 15h45c8.284 0 15-6.716 15-15z" fill="#ffc190"/><path d="m504.5 377h-22.5v-369.5c0-4.143-3.357-7.5-7.5-7.5h-437c-4.142 0-7.5 3.357-7.5 7.5v369.5h-22.5c-4.142 0-7.5 3.357-7.5 7.5v60c0 4.143 3.358 7.5 7.5 7.5h218.5v15h-7.5c-12.407 0-22.5 10.094-22.5 22.5s10.093 22.5 22.5 22.5h75c12.406 0 22.5-10.094 22.5-22.5s-10.094-22.5-22.5-22.5h-7.5v-15h218.5c4.143 0 7.5-3.357 7.5-7.5v-60c0-4.143-3.357-7.5-7.5-7.5zm-459.5-362h422v362h-15v-339.5c0-4.143-3.357-7.5-7.5-7.5h-377c-4.142 0-7.5 3.357-7.5 7.5v339.5h-15zm392 362h-362v-332h362zm-136 112.5c0 4.136-3.364 7.5-7.5 7.5h-75c-4.136 0-7.5-3.364-7.5-7.5s3.364-7.5 7.5-7.5h75c4.136 0 7.5 3.364 7.5 7.5zm-30-22.5h-30v-15h30zm226-30h-482v-45h482z"/><path d="m97.5 203.5h143.5c4.142 0 7.5-3.357 7.5-7.5v-128.5c0-4.143-3.358-7.5-7.5-7.5h-143.5c-4.142 0-7.5 3.357-7.5 7.5v49.25c0 4.143 3.358 7.5 7.5 7.5s7.5-3.357 7.5-7.5v-41.75h128.5v113.5h-128.5v-41.75c0-4.143-3.358-7.5-7.5-7.5s-7.5 3.357-7.5 7.5v49.25c0 4.143 3.358 7.5 7.5 7.5z"/><path d="m271 362h143.5c4.143 0 7.5-3.357 7.5-7.5v-287c0-4.143-3.357-7.5-7.5-7.5h-143.5c-4.143 0-7.5 3.357-7.5 7.5v287c0 4.143 3.357 7.5 7.5 7.5zm7.5-287h128.5v272h-128.5z"/><path d="m97.5 362h143.5c4.142 0 7.5-3.357 7.5-7.5v-128.5c0-4.143-3.358-7.5-7.5-7.5h-143.5c-4.142 0-7.5 3.357-7.5 7.5v128.5c0 4.143 3.358 7.5 7.5 7.5zm7.5-128.5h128.5v113.5h-128.5z"/></g></svg>