<svg id="Capa_1" enable-background="new 0 0 512 512" height="512" viewBox="0 0 512 512" width="512" xmlns="http://www.w3.org/2000/svg"><g><path d="m474.5 429.5c0 24.813-20.187 45-45 45h-347c-24.813 0-45-20.187-45-45 0-16.327 8.741-30.648 21.788-38.536l196.712-118.965 30-45-30-45c-40.285 0-74.386 26.469-85.864 62.964-5.251 16.697-15.682 31.29-29.366 42.203l-104.92 83.672c-17.258 13.754-28.35 34.931-28.35 58.662 0 41.355 33.645 75 75 75h317c49.627 0 90-33.645 90-75z" fill="#ff9c6c"/><path d="m476.151 370.839-104.921-83.672c-13.684-10.913-24.115-25.507-29.366-42.203-11.478-36.495-45.579-62.964-85.864-62.964v89.999l196.712 118.965c13.047 7.888 21.788 22.209 21.788 38.536 0 41.355-33.645 75-75 75h30c41.355 0 75-33.645 75-75 0-23.731-11.092-44.908-28.349-58.661z" fill="#ff7647"/><path d="m480.827 364.976-104.921-83.672c-12.881-10.272-22.179-23.617-26.888-38.59-6.178-19.644-18.212-36.563-34.802-48.931-14.91-11.115-32.313-17.607-50.717-18.995v-17.287c0-7.045 3.365-13.773 9.001-18.001l23.954-17.964c17.189-12.886 27.046-32.581 27.046-54.036 0-37.22-30.28-67.5-67.5-67.5s-67.5 30.28-67.5 67.5c0 4.143 3.357 7.5 7.5 7.5s7.5-3.357 7.5-7.5c0-28.948 23.552-52.5 52.5-52.5s52.5 23.552 52.5 52.5c0 16.688-7.67 32.008-21.044 42.035l-23.955 17.965c-9.394 7.045-15.001 18.26-15.001 30.001v17.287c-18.404 1.388-35.807 7.88-50.717 18.995-16.59 12.367-28.624 29.287-34.802 48.931-4.709 14.973-14.007 28.317-26.888 38.59l-104.918 83.67c-19.812 15.789-31.175 39.307-31.175 64.526 0 45.49 37.01 82.5 82.5 82.5h347c45.49 0 82.5-37.01 82.5-82.5 0-25.217-11.363-48.735-31.173-64.524zm-51.327 132.024h-347c-37.22 0-67.5-30.28-67.5-67.5 0-20.626 9.303-39.869 25.525-52.798l104.92-83.672c15.225-12.141 26.236-27.984 31.845-45.816 10.101-32.114 38.182-54.414 71.21-57.368v77.924l-193.092 116.776c-15.673 9.475-25.408 26.7-25.408 44.954 0 28.948 23.552 52.5 52.5 52.5 4.143 0 7.5-3.357 7.5-7.5s-3.357-7.5-7.5-7.5c-20.678 0-37.5-16.822-37.5-37.5 0-13.233 6.792-25.24 18.169-32.118l192.831-116.618 192.832 116.618c11.376 6.878 18.168 18.885 18.168 32.118 0 20.678-16.822 37.5-37.5 37.5h-317c-4.143 0-7.5 3.357-7.5 7.5s3.357 7.5 7.5 7.5h317c28.948 0 52.5-23.552 52.5-52.5 0-18.254-9.735-35.479-25.406-44.954l-193.094-116.776v-77.924c33.028 2.955 61.109 25.254 71.21 57.368 5.608 17.832 16.62 33.676 31.845 45.816l104.921 83.672c16.221 12.929 25.524 32.172 25.524 52.798 0 37.22-30.28 67.5-67.5 67.5z"/></g></svg>