<svg id="Capa_1" enable-background="new 0 0 512 512" height="512" viewBox="0 0 512 512" width="512" xmlns="http://www.w3.org/2000/svg"><g><path d="m444.5 504.5h-30l-60-248.5 60-248.5h30z" fill="#ff9c6c"/><path d="m414.5 7.5h-347v497h347v-30l-30-45 30-45v-30l-30-158.5 30-158.5z" fill="#ffc190"/><path d="m384.5 37.5-30 158.5 30 158.5h30v-317z" fill="#ff545a"/><path d="m256 37.5h128.5v317h-128.5z" fill="#ff9c6c"/><path d="m256 37.5-30 158.5 30 158.5h128.5v-317z" fill="#ff7647"/><path d="m97.5 37.5h158.5v317h-158.5z" fill="#ff9c6c"/><path d="m384.5 384.5-30 45 30 45h30v-90z" fill="#ff7647"/><path d="m286 384.5-30 15-30-15h-128.5v90h287v-90z" fill="#ff9c6c"/><path d="m256 414.5c16.569 0 30-13.431 30-30h-60c0 16.569 13.431 30 30 30z" fill="#ff545a"/><path d="m444.5 0h-377c-4.143 0-7.5 3.357-7.5 7.5v497c0 4.143 3.357 7.5 7.5 7.5h377c4.143 0 7.5-3.357 7.5-7.5v-497c0-4.143-3.357-7.5-7.5-7.5zm-7.5 497h-362v-482h362z"/><path d="m97.5 362h158.5c4.143 0 7.5-3.357 7.5-7.5v-309.5h143.5v302h-121c-4.143 0-7.5 3.357-7.5 7.5s3.357 7.5 7.5 7.5h128.5c4.143 0 7.5-3.357 7.5-7.5v-317c0-4.143-3.357-7.5-7.5-7.5h-317c-4.143 0-7.5 3.357-7.5 7.5v317c0 4.143 3.357 7.5 7.5 7.5zm7.5-317h143.5v302h-143.5z"/><path d="m226 173.5c-4.143 0-7.5 3.357-7.5 7.5v30c0 4.143 3.357 7.5 7.5 7.5s7.5-3.357 7.5-7.5v-30c0-4.143-3.357-7.5-7.5-7.5z"/><path d="m286 218.5c4.143 0 7.5-3.357 7.5-7.5v-30c0-4.143-3.357-7.5-7.5-7.5s-7.5 3.357-7.5 7.5v30c0 4.143 3.357 7.5 7.5 7.5z"/><path d="m97.5 482h317c4.143 0 7.5-3.357 7.5-7.5v-90c0-4.143-3.357-7.5-7.5-7.5h-317c-4.143 0-7.5 3.357-7.5 7.5v90c0 4.143 3.357 7.5 7.5 7.5zm179.71-90c-3.096 8.729-11.433 15-21.21 15s-18.114-6.271-21.21-15zm-172.21 0h114.255c3.484 17.096 18.635 30 36.745 30s33.261-12.904 36.745-30h114.255v75h-302z"/></g></svg>